/* XPM */
static char *result[] = {
/* columns rows colors chars-per-pixel */
"62 62 164 2 ",
"   c #277838",
".  c #2A7A3B",
"X  c #337E3D",
"o  c #337E41",
"O  c #388038",
"+  c #42843D",
"@  c #5F903E",
"#  c #66932F",
"$  c #659534",
"%  c #689837",
"&  c #659538",
"*  c #6E9D39",
"=  c #6C953C",
"-  c #7D9E3F",
";  c #7DA03F",
":  c #3B8142",
">  c #428340",
",  c #4B8846",
"<  c #408848",
"1  c #4B8A4D",
"2  c #528D46",
"3  c #518D4B",
"4  c #489848",
"5  c #579042",
"6  c #52914D",
"7  c #5C9444",
"8  c #4D8F51",
"9  c #559353",
"0  c #5D9754",
"q  c #689A43",
"w  c #669B4B",
"e  c #699C4B",
"r  c #709D42",
"t  c #649B51",
"y  c #699D53",
"u  c #649A59",
"i  c #7BA644",
"p  c #7FA843",
"a  c #7EA84B",
"s  c #7BA24A",
"d  c #76A255",
"f  c #669C60",
"g  c #75A267",
"h  c #9FAD1A",
"j  c #9FB41B",
"k  c #A1B01D",
"l  c #9DB820",
"z  c #86A33D",
"x  c #8CB23E",
"c  c #97B839",
"v  c #A3AF22",
"b  c #A4B323",
"n  c #A8B525",
"m  c #A7BB26",
"M  c #A6B12D",
"N  c #A3BB29",
"B  c #ACB52B",
"V  c #B3B62C",
"C  c #B3BA2C",
"Z  c #A5B330",
"A  c #AAB836",
"S  c #AAB63D",
"D  c #A1BB3F",
"F  c #A3BC36",
"G  c #BBBE36",
"H  c #B6BD3E",
"J  c #BBBE39",
"K  c #EDAD01",
"L  c #F2AD02",
"P  c #EFB702",
"I  c #F5B402",
"U  c #F8B702",
"Y  c #F6BB01",
"T  c #F8BB02",
"R  c #BBCD1C",
"E  c #ABC22B",
"W  c #A5C039",
"Q  c #BCCC33",
"!  c #BACD3C",
"~  c #CFD70C",
"^  c #D3DB0D",
"/  c #CCC51B",
"(  c #D4C917",
")  c #DAC914",
"_  c #D8CC1C",
"`  c #CDDA1B",
"'  c #D6DE12",
"]  c #DCDF18",
"[  c #E1CF0F",
"{  c #F6C302",
"}  c #F9C302",
"|  c #F7C901",
" . c #FACC02",
".. c #EDD50B",
"X. c #F6D000",
"o. c #FBD403",
"O. c #F6DC06",
"+. c #FEDE02",
"@. c #F4DA0D",
"#. c #E2CF1A",
"$. c #E6D214",
"%. c #E2D218",
"&. c #F1D614",
"*. c #F3DB11",
"=. c #DDE20D",
"-. c #DEE11A",
";. c #EDEC0F",
":. c #E2E30D",
">. c #FEE102",
",. c #FDED01",
"<. c #F8E10B",
"1. c #F6E90A",
"2. c #FCED08",
"3. c #FDF204",
"4. c #FDF802",
"5. c #F6F10C",
"6. c #FEF509",
"7. c #FCF90A",
"8. c #EEE716",
"9. c #EDEA15",
"0. c #E5E61E",
"q. c #E9E91B",
"w. c #F4E412",
"e. c #F2ED14",
"r. c #F0EE1A",
"t. c #F2F017",
"y. c #C6C624",
"u. c #C2C12F",
"i. c #CFD821",
"p. c #DDDC2E",
"a. c #C2C232",
"s. c #CCCB35",
"d. c #C4C439",
"f. c #D1CA34",
"g. c #C0D135",
"h. c #CCD63C",
"j. c #D4DC34",
"k. c #E6D625",
"l. c #EBD625",
"z. c #E2D22B",
"x. c #E2D332",
"c. c #DEE325",
"v. c #94AE42",
"b. c #90B347",
"n. c #98B944",
"m. c #87AD54",
"M. c #82A95C",
"N. c #88AC5E",
"B. c #88B05E",
"V. c #99B15C",
"C. c #A5B540",
"Z. c #A9B644",
"A. c #AABD4D",
"S. c #A7B750",
"D. c #AABC5C",
"F. c #8DAF69",
"G. c #8DB466",
"H. c #8FB069",
"J. c #A8C04A",
"K. c #BEC145",
"L. c #B9C14C",
"P. c #B4CC4E",
"I. c #AAC453",
"U. c #B3C050",
/* pixels */
"4 4 4 < < < <                 : < < <         : < < :                 < < < <         < < < : .               < < < < 4 4 4 ",
"4 4 4 < < < :               O < < < <       o m.F E m j j j j l b k h b n v.u .       < < < < .               < < < < 4 4 4 ",
"4 4 4 < < : < . : :           : < : <   . b.` 9.2.,.2.,.,.2.6.>.>.>.+.+.+.@.%.A 1     < < < <     .           < : : : : 4 4 ",
"< < <   .   . < : : :           O O : f c.,.,.,.,.,.,.3.3.2.>.>.+.+.+.+.+.+.>.+.+.S + < < < < < : < <           O O : < < < ",
": : :   .     : : : 4 O         O O W ;.,.,.,.,.,.,.3.6.>.+.>.+.+.+.+.+.+.+.+.+.+.+._ q < < < < < < <                 < < < ",
"8 : :       . < : : 8 :       . O x 5.,.,.,.,.,.,.3.2.>.+.+.>.+.+.>.>.+.+.+.+.+.+.+.+...e < < < < < <                 < < : ",
": : : O     . : : : : O     . O * 5.4.5.,.,.,.,.3.6.>.>.+.+.+.+.+.+.+.>.>.>.+.+.+.+.+.+.[ 7 < < < < <                 < < < ",
": :           O     O < < : : i q.4.5.5.,.,.,.5.6.>.+.>.+.+.+.>.+.+.+.o.o.+.+.+.+.+.>.+.+.a.6 .               < < < <     O ",
"O                     < : 4 t =.3.,.,.,.,.,.,.6.>.+.+.+.+.>.+.o.} Y U T T I Y O.>.+.+.+.+.+.Z.                < < < : O     ",
"O                     < : 9 P.4.,.,.,.,.,.2.3.6.>.>.+.+.>.>. .T T T Y Y U T T I { >.>.+.>.+.$.7               : < < : .     ",
"  O                   < : b.4.5.,.,.,.,.,.,.6.>.+.+.+.+.<.} T T T T T T U Y Y Y I P +.+.+.>.+.a.>           . < : : : :     ",
": < :                 < : i.,.,.,.,.,.,.,.6.2.+.+.+.>.>.} T T T T T T T Y T Y Y U I I +.+.+.+.O.i         . . < : : :       ",
"< < < :             O : B.;.,.,.,.,.,.,.2.6.>.+.+.+.+. .T U T T Y T T Y T Y T T Y Y L Y +.+.+.+./ X         . : 4 : : :     ",
"< < :               : : h.4.,.,.,.,.,.,.6.2.+.+.+.>.o.} U T T T Y Y T U T T T T Y Y U L  .>.+.+.@.-         . < : 8 :       ",
"< < < O               4 4.4.,.,.,.,.,.,.6.2.+.+.+.+.} T T T T T T Y T T T T T Y T T Y T K +.+.+.+.V           < 8 8 : :     ",
"< < < < : < <         G.4.5.,.,.,.,.,.,.6.<.+.+.+.o.T T T T T T T T T T T T T T T T Y T K  .>.>.+.@.<         : : : 4 :     ",
"< < < < < < <       1 :.3.,.,.,.,.,.,.7.2.+.>.+.+.Y T T Y T T T T T T T T T T T T T T T I I o.+.>.>.d       : < 4 : :       ",
"< < < < < < <       i e.,.,.,.,.,.,.,.7.>.+.+.>.o.T T T T T Y T T T T T T T T T T T T Y T K  .>.+.>.y..       < : : :       ",
"< < < < < < <       E 4.2.,.,.,.,.,.3.3.>.+.+.+.} T T T Y U T T T Y T T Y T T T T T T Y T I Y +.>.+._ 6       : 8 : < O     ",
"  . . < : < <       j.3.,.,.,.,.,.,.6.2.+.+.+.+.T T T T T U } T T T T Y T Y Y T } T T T Y I I o.>.+.-.t     O < : : :       ",
"      : < < <       5.,.,.3.,.,.,.,.7.2.+.+.>. .T Y Y T I I +.T Y Y U U Y U I U +.U T T T Y L { >.+.+.v       < 8 4 8 :     ",
"    . < < < <     1 6.,.,.,.,.,.,.,.7.>.+.+.>.| T T T U L  .>.o.I Y X.o.o.Y P O.>.o.T T T T L Y +.+.+.d.      : : : :       ",
"    . : < < <   . N.3.,.,.,.,.,.,.3.6.+.+.>.>.T T Y Y T I o.>.>. .+.>.+.+.+. .>.+.+.U Y T T I I o.+.+.z.:   : < < : : :     ",
"    O < < < <     Q 3.,.,.,.,.,.,.3.6.+.+.>.+.T T T Y U L | >.+.+.+.+.+.+.+.+.+.>. .Y Y T Y U L o.>.+.+.< < < < < : : O     ",
"      : : : 4 :   ~ 3.,.,.,.,.,.,.3.3.+.>.+.+.T T T Y T Y I >.+.+.+.+.+.+.+.+.+.>.T T T T Y U L  .>.+.+.1 < < < < < < .     ",
"    : : : : : O . ' ,.,.,.,.,.,.,.3.2.>.+.>. .T T Y Y Y T L | +.+.+.o.o.o.+.+.+. .T T Y Y Y U L { >.+.+.g : < < < < < .     ",
"      : < : : : : ] 3.,.,.,.,.,.,.6.2.+.+.>.| T T Y T T T K  .+.>.o.T I L  .>.>.o.T T Y T T T I T >.+.+.H.< < < : < :       ",
"        O     O , 0.,.,.,.,.,.,.,.6.>.>.+.>.{ T Y T Y T T K +.+.@.} T T U Y +.+.+.U T T T T T I Y >.+.+.D.< : . . . .       ",
"                , 9.6.,.,.,.,.,.,.6.>.>.+.>.} T Y Y T T I L >.+. .T U T I I X.+.+.I T T T T T I I >.+.+.P.< <               ",
"                5 9.,.,.,.,.,.,.,.7.>.>.+.>.} T T Y T T I I >.+. .Y T T T I { +.+.T T T T T T I I +.+.+.L.1 <               ",
"                5 e.3.,.,.,.,.,.,.6.>.>.+.+.} T Y Y Y Y I I >.>.{ T T T T I { >.>.Y T T T T Y I I >.+.+.d.< <               ",
"      < < < : < y e.,.,.,.,.,.,.,.7.>.+.+.+.} T { T U T I I >.>.} Y T T T L { >.>.U T T T T T I I >.+.+.G     < < < <       ",
"      < < < < < 8 c.,.,.,.,.,.,.,.6.>.+.+.+.} T T T T T I I >.>.} T Y T Y I { >.>.T T T T Y T I I +.+.+.Z..   < < : < .     ",
"      < < < < < f c.3.,.,.,.,.,.,.7.2.+.+.>. .T T T T T I K >.+.o.T T T U I o.+.+.I T T T T T I T >.+.+.A.    < < < : .     ",
"      < < < < < 4 c.7.,.,.,.,.,.,.6.2.>.+.>. .T T T U Y Y K +.+.+.} T T I { +.>.o.T T T Y T T I T >.>.+.V..   < < < < .     ",
"              < 4 c.4.3.,.,.,.,.,.6.>.+.+.>. .T T T T T Y L { +.+.+.} I P o.>.+. .T T T Y Y U I { +.>.+.H.< < < < < <       ",
"              < < ' 3.,.,.,.,.,.,.6.,.+.+.>.o.T Y T Y T Y I o.+.+.+.+.o.+.+.+.+.o.T Y T Y Y U L } >.>.+.f < < < < < <       ",
"              < < ` 3.,.,.,.,.,.,.3.6.+.+.>.+.T T T T T L P >.+.+.+.+.+.+.+.+.>.>.} T Y T T U L  .>.>.+.1 < < < < < <       ",
"              < < P.3.,.,.,.,.,.,.3.6.+.>.+.>.T T T Y T L o.+.>.+.>.>.+.+.>.+.+.+.+.T T T T I L o.+.+.*.< : < < < < <       ",
"              < < G.4.,.,.,.3.,.,.,.7.+.>.+.>.} T T T U I o.+.+.{ o.>.>.+.X.{ >.+.o.T T Y Y I I +.+.>.p.8 < <               ",
"            : : < 8 4.,.,.,.,.,.,.,.6.>.>.+.>. .Y Y U } P { >.o.U I } | } U L O.>. .Y T Y T I { +.+.+.H < < < .             ",
"      O     O : < < r.3.,.,.3.,.,.,.6.2.+.>.>.o.T Y T Y I I  .T T T T U T T I Y X.U Y U T U L o.+.>.+.Z < < :               ",
"    : O     O : < < h.3.,.,.,.,.,.,.3.6.>.>.+.+.} T Y T Y U T T T T T T T T T T T T Y { Y I I +.+.+.&.m.< < <               ",
"< : : : : : : .     N 3.,.,.,.,.,.,.3.6.>.+.+.>. .T Y Y Y Y T T T T T T T T Y T T Y Y T Y L { >.+.+.) 9 < < < .             ",
"< < < < < < < .     y 0.3.,.,.,.,.,.,.6.2.+.+.+.+.T T T T T Y T Y T T T T Y T Y T Y T T U L o.>.+.+.A.< < < <               ",
"< < < < < < < .     : =.3.,.,.,.,.,.,.3.2.+.>.+.+.} T T Y T Y T T T T T T T T Y T T T T I { +.>.+.+.0 : < < <               ",
"< : < < < < :         B.3.,.,.,.,.,.,.3.6.+.+.>.+.+.} T { T T T Y U T T T T T T T T U T L +.>.+.O.p.< < < < <               ",
":   O < < < :         8 3.,.,.2.2.,.,.2.6.>.+.+.>.>. .T Y Y T Y T T T T T T T T { Y T L T >.+.+.;.x < < < < <               ",
"      < < < <         < n.5.,.,.,.,.,.,.5.,.+.+.>.+.+.} U T T U T T T T T T T T Y T L I @.+.+.+.$.y < < < < < .             ",
"      < < < <         < a q.,.5.,.5.,.,.,.7.>.+.+.+.>.+.} T T Y T T T T T Y T T Y I U o.>.>.+.+.G 1 < < < < : .             ",
"      < < < <   : O   : : g.4.5.3.,.,.,.,.7.6.>.+.+.+.>.@.T T T T T T T T T T T U I o.>.+.+.>.*.s : : < : : < O             ",
"      : < < < < < : :   O q ;.4.,.,.,.,.,.3.7.>.>.+.+.+.>.+.} T T T T Y Y T T I P o.>.+.+.+.@.Z X   . < 8 : :               ",
"      < < < < < 4 < < :   O n.t.,.,.,.,.,.,.,.6.>.>.+.+.>.+.+.o.T T Y Y U U I | +.+.+.+.>.>.Q :     O < : : : :         O O ",
"      < < < < < : 4 < :   O O E 3.,.,.,.,.,.,.6.2.>.>.+.+.>.+.>.O.+.o. . .+.>.+.+.+.+.+.+.:.7       O < : 4 : :           : ",
"      < < < < < : : :         4 0.,.2.,.,.,.,.,.6.>.>.>.+.+.+.+.>.+.+.>.>.>.+.+.>.+.>.>.+.Z.: O     : : < : : :       O     ",
"< < <         < : : :           e e.,.,.,.,.,.,.3.6.>.+.+.>.+.+.+.>.>.+.+.+.+.+.+.>.+.>.s.: : O     : < < : : O       < < : ",
"< < <         < < < <             i 5.,.2.,.,.,.,.3.3.2.>.>.+.+.+.+.+.+.+.+.+.+.+.+.+.s.4 : : :       : < < <         < < < ",
"< < <         < < < <               d =.3.,.,.,.,.,.,.3.>.+.>.>.>.+.>.>.+.+.+.+.+.O.U.< : : 8 :       < < < <         < < < ",
": : <   :   O : < < <             .   + J.4.3.7.,.,.,.,.3.3.>.>.+.+.+.+.+.+.+.+.l.r 1 < : : :         < < < <   : :   < < < ",
"4 4 : < < : :                     . . : : t c P.p.w.1.1.1.1.5.1.w.<.<.&.l.f.B d 1 < <       O                 < : < : : 4 4 ",
"4 4 4 < < < < :                       : : : : : 5 & $ $ $ $ $ % & $ # & @ , X < : : : :                       < : < < 4 4 4 ",
"4 4 4 4 < < < :                     O : 4 : : :                               < : 1 : :                       < < < < 4 4 4 "
};
