/* XPM */
static char *result[] = {
/* columns rows colors chars-per-pixel */
"62 62 157 2 ",
"   c #277838",
".  c #29793B",
"X  c #357F41",
"o  c #3C813C",
"O  c #4E8836",
"+  c #45873C",
"@  c #528B3C",
"#  c #59913D",
"$  c #66922F",
"%  c #6A952A",
"&  c #6A992C",
"*  c #639238",
"=  c #68983B",
"-  c #7B9F39",
";  c #7BA53D",
":  c #3B8142",
">  c #448441",
",  c #4A8741",
"<  c #4B8A46",
"1  c #428448",
"2  c #408848",
"3  c #4B8D4C",
"4  c #528D45",
"5  c #4E904B",
"6  c #489848",
"7  c #549040",
"8  c #5B9242",
"9  c #5C944F",
"0  c #4F8F51",
"q  c #4F9051",
"w  c #539253",
"e  c #5B9654",
"r  c #5B9659",
"t  c #669B4F",
"y  c #6C9D4A",
"u  c #729D40",
"i  c #7D9F45",
"p  c #699D51",
"a  c #619959",
"s  c #6E9F59",
"d  c #649B53",
"f  c #739F51",
"g  c #79A04B",
"h  c #76A155",
"j  c #9FAD22",
"k  c #9AAF2C",
"l  c #9EB425",
"z  c #97B12C",
"x  c #9BB32B",
"c  c #81A03F",
"v  c #88AD3E",
"b  c #9AAD3B",
"n  c #89B13A",
"m  c #9ABA3F",
"M  c #A7B62E",
"N  c #ACB529",
"B  c #B4BA2A",
"V  c #A3BB33",
"C  c #A0B13F",
"Z  c #A9B839",
"A  c #B6BB30",
"S  c #B3BB3F",
"D  c #EFA806",
"F  c #F2AD02",
"G  c #EFB201",
"H  c #F4B402",
"J  c #F8B601",
"K  c #F7BB01",
"L  c #F8BB01",
"P  c #A8C026",
"I  c #A6C02A",
"U  c #B2C62F",
"Y  c #A9C13E",
"T  c #BDC037",
"R  c #B6C932",
"E  c #B0C53E",
"W  c #BBC03B",
"Q  c #B4C939",
"!  c #BDCF3B",
"~  c #D8C90D",
"^  c #DDCE14",
"/  c #DCCE1A",
"(  c #DEDF18",
")  c #F7C402",
"_  c #F9C302",
"`  c #F7CA02",
"'  c #F9CC02",
"]  c #E5D208",
"[  c #FBD402",
"{  c #F6DB06",
"}  c #FEDE02",
"|  c #F6DB0A",
" . c #F8DC0A",
".. c #EDD618",
"X. c #F0D814",
"o. c #DDE30C",
"O. c #DCE212",
"+. c #EFEC0C",
"@. c #FEE102",
"#. c #FDED01",
"$. c #F4EF0E",
"%. c #FDED08",
"&. c #FDF304",
"*. c #F3F00C",
"=. c #FEF409",
"-. c #FDF80A",
";. c #E8E917",
":. c #F1ED11",
">. c #F5F013",
",. c #C0CF2D",
"<. c #D5CC26",
"1. c #D2CA2B",
"2. c #DDCF28",
"3. c #C8D62E",
"4. c #D9DE20",
"5. c #C2C231",
"6. c #CCC736",
"7. c #C4C33B",
"8. c #DACF32",
"9. c #C6D131",
"0. c #C1D13A",
"q. c #CED73A",
"w. c #E7D625",
"e. c #EAD620",
"r. c #E9D823",
"t. c #E4D42F",
"y. c #E3D531",
"u. c #DEE23B",
"i. c #E4E421",
"p. c #EDEA21",
"a. c #E4E733",
"s. c #E7E833",
"d. c #EAEB30",
"f. c #86AD42",
"g. c #8CA946",
"h. c #83A54B",
"j. c #95AC43",
"k. c #89B042",
"l. c #8FB44F",
"z. c #9ABA45",
"x. c #96B44B",
"c. c #9CB24B",
"v. c #89A952",
"b. c #82A75B",
"n. c #82AC5A",
"m. c #8AB154",
"M. c #87B05F",
"N. c #9EB350",
"B. c #A7B546",
"V. c #AFBB4D",
"C. c #A5BF55",
"Z. c #A3BF5A",
"A. c #AAC24B",
"S. c #BDC245",
"D. c #C0CE48",
"F. c #CFDA42",
"G. c #C5D454",
/* pixels */
"6 6 6 2 2 2 : .             . 2 2 2 2         : : 2 2     . .         : 2 2 2         2 2 2 2                 2 : 2 2 6 6 6 ",
"6 6 6 2 2 2 2 .             . : 2 2 2         0 b.B.M k z x z x x x z V Y m.a         2 2 2 2                 2 : : 2 6 6 6 ",
"6 6 6 2 2 2 2                 2 2 2 2     X j.^ .. . .}  .@.%.=.#.@.#.%.#.;.( Q <     2 2 2 2 .               2 : : : 6 6 6 ",
"2 2 2         2 2 2 2               . w Z X.} } @.@.@.} @.} } @.%.=.#.#.&.#.#.#.&.,.# 2 2 2 2 2 2 2 2           o : : : 2 2 ",
"2 2 2         2 2 2 2               @ 6. .} } } }  .} } } } } } @.@.=.=.#.#.#.#.#.#.( m.5 2 : 2 2 2 2                 : : : ",
"2 : 2         2 2 2 2             = <.} } @.} @.} } @.} } @.} } } } @.=.&.#.#.#.#.#.#.$.z.2 2 2 2 2 2             o   : : : ",
"2 2 2         2 2 2 2       .   , / } @.} @.} } @.} } } } } @.@.@.} @.@.&.#.#.#.#.#.#.&.;.x.2 2 2 2 2           : o : : : : ",
". .                   2 2 2 : : T } } @.} } @.@.} } } } @.} } } } @.@.@.@.=.#.#.#.#.#.#.&.p.r .               2 : : : : : : ",
"                      : 2 2 2 b } @.} } } @.[ _ H H H J _ ' } } @.} } } } %.=.#.#.#.#.#.#.&.o.+               : : 6 : :     ",
"                    : : 2 2 s  . .} } } } ' H H L L L L L J _ { @.} } @.} @.=.#.#.#.#.#.#.#.&.Y               : : : : :     ",
"                      : 2 5 ^ } @.} @. .L H L L L L L L K L L L ' } @.} @.} %.=.#.#.#.#.#.#.#.&.,           : : 2 2 : :     ",
"2 2 2             : : : : g  .} @.@.@.K H H L L L L L L K L L L L ' @.} } } } =.#.&.#.#.#.#.%.&.E           : : 2 : : :     ",
"2 2 2               o : : q.} @.} } _ F K L L L L L L L L L K L L L ' @.} } } #.-.#.#.#.#.#.#.#.:.#           : 2 2 : : o   ",
"2 : 2 .             : : h +.@. .@.` F L L L L L K L L L L L L L L L L } @.} } @.-.&.#.#.#.#.#.#.&.A.          3 2 2 :       ",
"2 2 2 .   o           : N @.@.@.} F H L K L K L L L L L L L L L L L J ` @.} @.} @.&.#.#.#.#.#.#.&.-.o         : 2 2 2 :     ",
"2 2 2 2 : 2 : o       6 ..@.@.@.) H L L K K L L L L L K L L L L L L L L [ @. .@.@.-.&.#.#.#.#.#.#.&.C.        : 2 2 2 :     ",
"2 2 2 2 2 2 :         c.} } } } D L K L L K L L L L L L L K K L K K L L K @.} @.} %.=.#.#.#.#.#.&.-.o.o     : : 2 2 :       ",
"2 2 2 2 2 2 2       . y.} } @.' F L K L L L K K L L K L K K L L L K L L L } } @.} %.=.#.#.#.#.#.&.-.*.+   o o : 2 : :       ",
"2 2 2 2 2 2 2       1 } @.@.@.F H L L K K L L K K L L L K K L L L K K L L ` } } } @.=.&.#.#.#.#.#.#.*.;     o : 2 2 : :     ",
"    . 2 2 2 2     . i } } } ' F L K L K K _ L K L K L L L K K L K K K L L L } } } } %.&.#.#.#.#.#.#.*.Y     o : 2 2 :       ",
"      2 2 2 2     . j } } } K F L L K L ) | K H L L L L L L ) [ H K K L L L } } @.} %.&.#.#.#.#.#.#.*.*.: : o : 2 2 2 :     ",
"      2 2 2 2     X A } } } H H L L K L [ } ' F L ' [ ' K H [ } ) H L K L L ' @.} @.%.-.#.#.#.#.#.#.#.&.: : o : 2 2 : :     ",
"      2 2 2 1     4 8.} } } F H L L L L [ } } ` } } } @.[ _ @.} [ H J L L L _ } } @.@.-.&.#.#.#.#.#.#.&.6 : : 2 : : : :     ",
"      2 2 2 2     $  .} } [ F L L L L L [ @.} } @.} @. .} @.} @.' H L L L L H } } } @.=.#.#.#.#.#.#.&.&.k.: : 2 : : : o     ",
"      2 2 2 2 .   % } } } ' F L K L K L ` } } } } } @.} }  .} } H H L L L L K } } } @.=.*.#.#.#.#.#.#.-.I : : 3 2 2 2 o     ",
"      2 : 2 2 . . c } } @.L H L L K L K K ' } } } } [ } } } } ) F L L L L L L [ @.} } &.&.#.#.#.#.#.#.&.I 3 : : 2 : 2 :     ",
"      2 2 2 2     j.} } @.H H L K K L L L ' } @.[ H H K } @.@._ F L L L L L L [ @.} @.%.&.&.#.#.#.#.#.-.S.q 6 : : : :       ",
"                . B.} } @.F H L K L K L _ [ } } G H L L ) } @.' F K L L L L L ' @.@.} %.&.#.#.#.#.#.#.&.F.r : :     :       ",
"                . S } @.@.F H L K L K K L } } [ D L L L K [ @.[ D K K L L L L ' } } } %.&.#.#.#.#.#.#.&.u.d : o             ",
"                . T } } } D K L K L L K ` } @.' F L L K K ' } } H H K K L L L ' } @.} %.-.#.#.#.#.#.#.&.a.p : :             ",
"                . 5.} } @.F K K L K L K _ @.} ) H L L K L ` } } H H L L L L L ' @.} } @.-.#.#.#.#.#.&.&.d.6 : : : :         ",
"    o : 2 2 2 2 2 7.} } } D K L L L L K ) @.@._ F L L K L ` @.[ K H L L L L L ' } } } %.-.#.#.#.#.#.&.-.d.o : : : : :       ",
"      : 2 2 2 2 2 A.@.} @.D H L L L L K ` } @.` H L K L K ' } } H H K L L L K ' @.} } #.&.#.#.#.#.#.#.#.a.8   : 2 2 2 .     ",
"    o : : : 2 2 6 A.@.@.@.F H L L L L K L } } [ F J L K K [ } { F H L L L L K ' @.} } %.=.#.#.#.#.#.#.&.u.4 . 2 2 2 : .     ",
"      : : : : : : A.=.@.@.H H L L L L K L [ } @.H H K K ` } } [ F H L L L L L [ } } } %.&.#.#.#.#.#.#.&.q.<   2 : 6 3 .     ",
"      : : : : : : l.@.@.@.H H L L K L L L [ } } [ F H K } } @.) F L L K L L K [ @.} @.%.&.#.#.#.#.#.#.=.0.w : 2 : : :       ",
"            : : 1 g.} } @._ D _ L L K L K [ @.} } [ [ } } } } ) F K L L L K K [ } } @.=.=.#.#.#.#.#.#.=.Q 0 : 6 0 : : : :   ",
"            : : 2 - } } @.' F L K L K L _ } } } } @.} } } } } { H H L L L K K } } } @.=.&.#.#.#.#.#.#.=.I 0 : : : : :       ",
"              : 2 u | } } [ F H L L K K [ } } @.} } } } } @.} @.[ H L L L L K @.} } @.-.#.#.#.#.#.#.=.-.z.: 3 : q : :       ",
"              : 1 t t.} } } H H K K K H } } } ' } @.} } [ ` } } [ H H L K L _ @.} @.@.=.&.#.#.#.#.&.&.-.h : : . : : :       ",
"              2 2 q T } @.@.H H L K L K [ @.' F K ' [ ' H J [ @.) H L K L L [ @.} } #.=.#.#.#.#.#.#.&.&.w : 2 .             ",
"              2 2 2 N } @.} L F K K L L _ } K H L L J K L L ` [ H H L L L L } } @.} %.=.#.#.#.#.#.%.#.-.2 2 :               ",
"    . .       2 2 2 v.} } @.} F H K L L K L L L L L L L L L L L L L L L L L } } } } =.&.#.#.#.#.#.#.-.G.2 2 2 .             ",
"2 2 2 2 : 2 2   .   : } } } @.H H L L L L K L L L L L L L L L L L L L L L ' } } } @.&.#.#.#.#.#.#.#.-.f.2 2 2 .             ",
"2 2 2 2 2 2 2       . e.} @.} [ D L K L L K L L L L L L L L L K L K L K L } } @.} %.&.#.#.#.#.#.&.#.+.y 2 : :               ",
"2 2 2 : 2 2 2         x.} } } } H H L L L L L L L L L L L L L L L L L K ) } } } } =.&.#.#.#.#.#.&.-.O.2 2 : : o             ",
"2 2 2 2 2 2 1         y t.} } @.[ F L L L L L L K L L L L L L L L L L _ } } @.@.} =.&.#.#.#.#.#.&.-.M.2 2 2 : :             ",
"  . . 2 2 2 2       . 3 B } } @.@.H F L K K L L L L L L L L L K L K L ' @.} } @.@.=.#.#.#.#.#.#.-.*.6 2 2 2 :               ",
"      2 : 2 2 o       : r +.@.} @.[ H H L K K L K L L L L K K L K L _ } } } } @.=.*.#.#.#.#.#.#.&.A.2 2 : 2 2 o             ",
"      2 2 2 :         : 2 3.} @.} @.[ F H L K L L L L L L K L L L _ } @.} } } %.-.#.#.#.#.#.#.#.+.t 2 2 2 2 :               ",
"      2 : : : o : : : : 2 f.@.@.} } @.` F L L L L L L L K L L K L [ @.} } @.} =.-.#.#.#.#.#.%.&.! 2 2 2 : : : o             ",
"      2 6 : : : : : :     o 1. .} } } @.' H H K L L L L L L L ` [ @.} } } } @.=.#.#.#.#.#.#.&.$.7   . 2 : : :               ",
"      2 : : : 6 6 : :       # +.@.} } } @.| L H L L L L L K ' } @.} } @.@.@.=.%.#.#.#.#.&.*.*.m     : : 6 q : :         o : ",
"      2 : q : 0 : : 0 :       y | @.} @.@.@.@.} ' _ _ ` [ } } @.} } } } } %.=.#.#.#.#.#.&.-.,.:     : : : : : :         o : ",
"      2 : : 6 2 : 3 :         : 1.} @.} } } } } @.@.@.@.@.} } } } @.@.} @.=.#.#.#.#.&.&.&.+.: :     : : 2 2 : :     o o     ",
"2 2 2   :   : 2 6 : :           . ] } }  .} } @.} } @.} @.} } } @.} @.@.=.&.#.#.#.#.#.&.+.; : :     : 2 2 2 : :       : : : ",
"2 2 2         : 2 2 2 :         . O ~ @.} @.} } } } } @.@.} @.} } @.@.=.&.#.#.#.#.#.%.*.k.: 6 :       : 2 2 2 o       : 2 2 ",
"2 2 2         : 2 2 : :               <. .} } @.} @.} } } } } @.} @.=.&.#.#.#.#.#.#.i.k.: : : :     : : 2 : 2 :     : : 2 2 ",
"2 : 2   : : : : : : : :               : b  .}  .@.} } } } @.} @.%.&.%.%.#.#.#.&.&.! t 2 : : :         : : : : : o : o : 2 2 ",
"6 6 : 2 : : : : :                   . 1 2 r W .. .@.} } } } %.&.&.#.#.#.#.$.i.3.M.3 :       :         :     : : : 2 : : 6 6 ",
"6 6 6 2 2 2 2 : :                     2 2 2 2 : * % % % % % % % % % % % & = 7 2 : : : :                       : : : 2 6 6 6 ",
"6 6 6 2 2 2 2 :                       2 2 : 2 .                               : : 3 : :                     o : 2 2 2 6 6 6 "
};
