/* XPM */
static char *result[] = {
/* columns rows colors chars-per-pixel */
"62 62 142 2 ",
"   c #277838",
".  c #2A7A3B",
"X  c #327D3E",
"o  c #347E41",
"O  c #3C8039",
"+  c #528B38",
"@  c #5D8F3F",
"#  c #5F903B",
"$  c #6B932E",
"%  c #649235",
"&  c #619138",
"*  c #719733",
"=  c #799C32",
"-  c #759C3D",
";  c #799D38",
":  c #3B8143",
">  c #438445",
",  c #498741",
"<  c #4D8847",
"1  c #408848",
"2  c #4A8B4D",
"3  c #538C43",
"4  c #538E4F",
"5  c #489848",
"6  c #529047",
"7  c #59934D",
"8  c #4D8E50",
"9  c #538D50",
"0  c #539151",
"q  c #5D9354",
"w  c #5A9559",
"e  c #639342",
"r  c #679649",
"t  c #66984F",
"y  c #6A9B4B",
"u  c #7B9F46",
"i  c #749E4B",
"p  c #649553",
"a  c #699957",
"s  c #61985C",
"d  c #6B9959",
"f  c #769F51",
"g  c #709D59",
"h  c #7CA345",
"j  c #7CA34C",
"k  c #78A053",
"l  c #7CA458",
"z  c #8BA32B",
"x  c #9BAC27",
"c  c #91A72F",
"v  c #8DA637",
"b  c #9EAE34",
"n  c #A3AF29",
"m  c #ADB62D",
"M  c #B0B621",
"N  c #B6B92D",
"B  c #B9BA2E",
"V  c #ABB635",
"C  c #A0B23E",
"Z  c #A8B33E",
"A  c #B7BC33",
"S  c #BABE34",
"D  c #B8BD3A",
"F  c #F6B701",
"G  c #F8B701",
"H  c #F7BB01",
"J  c #F8BB01",
"K  c #C1BF20",
"L  c #BCC035",
"P  c #BFC439",
"I  c #D2C60D",
"U  c #D6C80F",
"Y  c #DCCA0B",
"T  c #CCC416",
"R  c #C4C019",
"E  c #CBC419",
"W  c #D3C611",
"Q  c #D7CD15",
"!  c #DCCC13",
"~  c #D3CA1E",
"^  c #DECC18",
"/  c #DFD01C",
"(  c #E1CF0E",
")  c #F6C201",
"_  c #F9C302",
"`  c #F7C903",
"'  c #FACC02",
"]  c #ECD70C",
"[  c #F2D707",
"{  c #FCD302",
"}  c #F6DB06",
"|  c #FEDE02",
" . c #F5DB0B",
".. c #FBDE08",
"X. c #E1CE17",
"o. c #E3CF1D",
"O. c #EDD515",
"+. c #EED816",
"@. c #E4D11A",
"#. c #EAD51A",
"$. c #EED91E",
"%. c #F3D912",
"&. c #FEE002",
"*. c #C4C021",
"=. c #CFCB21",
"-. c #C2C22D",
";. c #C9C42B",
":. c #D7CA27",
">. c #D1C72A",
",. c #D0C82D",
"<. c #DBCD2D",
"1. c #C1C031",
"2. c #C9C731",
"3. c #C9C837",
"4. c #C3C43F",
"5. c #C9C73C",
"6. c #CAC93C",
"7. c #D7CF34",
"8. c #E9D624",
"9. c #E6D42B",
"0. c #F1DA20",
"q. c #E1D234",
"w. c #8CA643",
"e. c #8CAA45",
"r. c #87A449",
"t. c #86A84D",
"y. c #8CAA4E",
"u. c #94AB43",
"i. c #98AE44",
"p. c #82A751",
"a. c #9BB250",
"s. c #AAB441",
"d. c #ABB943",
"f. c #B3BA44",
"g. c #BABF48",
"h. c #A1B957",
"j. c #AFBC53",
"k. c #A3B85E",
"l. c #BCC353",
"z. c #C3C542",
"x. c #C8C644",
"c. c #C6C942",
/* pixels */
"5 5 5 1 1 1 1                 1 : 1 1 .       1 1 1 1                 1 1 1 1 .       1 1 : 1 . .             : 1 1 1 5 5 5 ",
"5 5 5 1 1 1 1                 1 1 1 : .       1 1 1 8 4 f r.w.w.w.f q 8 1 1 :         1 1 1 1 .             : : 1 : 1 5 5 5 ",
"5 5 5 1 1 1 : .               1 : : 1 O     . w h.:.U X.O.%. . .%.O.X.! ~ k.s         1 1 1 1 .   . .         : : : : : 5 5 ",
"1 1 1         1 1 1 1           :     8 t.L $.| | | &.&...&.&...| &.| | &...| %.N v : 1 1 1 1 1 : 1 : O       : : : : 1 1 1 ",
"1 1 1         1 1 1 1             5 u.Q %.| | | | &.&...| | | &.| &.| &.&.| | | | [ U u.y 1 : 1 : : :                 1 1 1 ",
"1 1 1         1 1 1 1         o - ,.| ..| | &.| | | | | | | ..| ....| | | ..| &.&.&.| | 9.u.0 1 : : :                 1 1 1 ",
"1 1 1         1 1 1 1 .   . + 1.] ..&.| | | | | | | | &.| &.&.| | &.&.| &.| ..| ..&.&.| &.} -.i 5 : : :               1 1 1 ",
"                      : 1 t.X.| &.&.&.| | | | ..| &.&.&.&.| | | &.&.&.&.| &...&.&.| | | | ..&.#.5 :         O : 1 1 1       ",
"                      5 A ..| &.&.&...&...| | ..| ' _ ) J G G G H H ) ' { ..&.&.| | &.&.| | | | &.L O O       : : : 8 :     ",
"                    . m | &.| | ..| | ..| | { _ J J J J J J H H J J J J J J ' { &.| | ..&.&...| &.&.C :       : 5 : :       ",
"                  . R &.| | &...| &.&.| ' H G J J H J H H J J J H H H H J J J J J { | | | | &.| &.&.&.l.:   . 1 : : : :     ",
"1 1 1           . z &.&.&.| | | &.| { ) J J J J J J J J J J J J J J J J J J J J J H ` | &.| | | &.&.&.&.s.O . 1 : : : :     ",
"1 1 1 O         M | | | | | | | | ` G J J J J J J J J J J J J J J J J J J J J J J J J J ' &.....&.&.&.| | b   : : 5 1       ",
"1 1 : .       a } &.| | &.&.&.| ) J J H H J J J J J J J J J J J J J J J J J J J J J H H J ' ..&.&.&.| &.| | u : : : 1       ",
"1 1 1 .   O : U &.&...| &.&.| H H J J J J J J J J J J J J J J J J J H J J J J J J H J J J J ' ..&.&.....| | :.t 5 1 1       ",
": 1 1 1 : : h.&...| &.| &.| H H J J J J H J J J J H J J J J J J J J J J J J J J J J H J J H J ' &.&.&.&.| &.&.<.: 5 1 :     ",
"1 1 1 1 1 j | &.| &.| | | ) J J J J H J H J J J J J J J J J J J J J J J H J H J J J J J J J H J { &...| &.| &.} e.: :       ",
"1 1 1 1 2 >.&.&.| ..| | ' H H J J J J J J J H J J J J J J J J H J J J J J J J J J J J J J J J H J { | &.| ..&.| 6.q 1       ",
"1 1 1 : j ..| ..&.| ..{ J J J J J J J J H H H H H H H J J J J J J J J H H H J J H J J J J J H H J J &.| &.&.| | &.e.1       ",
"  .   1 6.&.| | &...| _ J J J J J J J J J J J H J J J J J J J J J J J J H J J ) H J J J J J H H J J ' | &.| &.&.&.2.2       ",
"      w | | | | | &.' J J J J J J J J J J _ { { ) J H H J J J H H H J J H H ' { ' H J J J J J J H J H | | ..| &.&.O.k       ",
"    . i.| &...&.| &.) H J J J J J J J H ) | &.| { J J ) ` ' { { { ) J J H { &.&.| ' J H J J H J H J H { &...&.| &...V       ",
"    O L | | | | | | J J J H H J J J J H { &.| | ..{ ' { &.&.| | &.&.| ' ' &.| | | | J H J H H J J J H H &.&.| | &.| 7.      ",
"    # 0...| | | | ` J J J J J J J J H H ` &.| &.| | &.&.| | | | | | | &.&.| &.| &.' H H J J J J J J J J { &.| ..&.| &..     ",
"    $ | | | | ..| J J J J J J J J J J J H ' | | | | | | &.&.&.| | | | | | | | | { J J H H J J J J J J J _ &.....&.| | q     ",
"    i...| | &.&.{ J J J J J J J J J J J H H ' | | | | | | { { { | | | | | | | ' J J J H H J J J J J J H J &.&.| | &.| f.    ",
"  . D &.&.| | &.' J J J J J J J H J J J J J ` | | | &.&.' ) H H ) ' ..&.| | | ` J H H J J J J J J J J H J | &.| | | | W .   ",
"    R &.| | | &._ J J J J J J J J J J J H J | | | | { ` J H H H J J ) { | | | | J J J J J H J J J J J H H | &.| | | | I X   ",
"    I | ..&.| &.) J J J J J J J J J J J J _ | | ..| ` J J H H H H J J ' | &.| &._ J J J J J J J J J J J J { &...| | | ^ 2   ",
"  . I | &.&.&.&.) J J J J J J J J J J J H ' &.| | ..F J H J J J ) H J J | | | | ` J J J H J J J J J J J J ' &.| | | | @.p   ",
"  o W | | &.&.&.J J J J J J H J J J J J H ' | | | { H J J H H J H J H H { | | | { J J J J J J J J J J J J { &.| | | | #.p   ",
"  o U &.| &.&.&.J H J J J J J J J J J J H { | | | | H H H H ) H J J J H ' | &.| ' J J J J J J J J J J J J { | | | ..| #.p   ",
"  . I | | | | &.) J J J J J J J J J J J J ' | | | | H H J J H H J J J J { &.| | ' H J J J J J J J J J J J { | &.| &.| X.q   ",
"    I | | | &.&._ J J J J J J J J J J J J _ | | | &._ H H H F H H H J ` &.| | &.) H J J J J J J J J J J H { | | ..| | ^ 2   ",
"    T | | | &.&.' J J J J J J J J J J J J J | &.| | | ) J J H H H J _ ..&.| &.{ J J J J J J J J J J J J J | | | &.| | I X   ",
"    D | | | &.| ' J J J J J J J J J J J J J ` | | | &.| ) H H H J _ | ..| &.&.' J J J J J J J J J J J J ) | | | | | | E .   ",
"    u.| &.| | | { J J J J J J J J J J J H H ' | | | } &.| { { { | | | | | | | { J J J J J J J J J J H J ) | &.| &.| | f..   ",
"    * | &.&.| | &.J J H J J H J J J H J H ' | | | | | | &.&.| | | | | | | | | | { J J J H J H J J J H J ` &.| | | | | d     ",
"    # 8.| &.| ..&.{ J J J J J J J J H H ` &.| | | | | | | &.| | | | &.| | | | | &.{ J J H H J J H J J J | | | | | &.|       ",
"    : N &.&.| | | | H J H H J J J H H H { &.| | | { { | &.&.| | | | | { { | | | | ..J J J J J H H J J ) &.| &.| | ..<.      ",
"      v | | | | | &._ J J J J J J J J H _ &.| | { H G J ) ' { { ' ) J J J { &.&.&.` J J J H J H H J H ..| ..&.&.} &.x       ",
"      < | | &.| ..&.{ J J J H J J J J J J ' | { J J H J J J H H J J H H J H ' | ' J J J J J J H J J ) &.| &.| &.&.O.h       ",
"      . c.| | ..&.&.&._ J J J J J J J J J J J H J J J J J J J J J J J J J J J H J J J J J J J J J H { | ..| ..| | R         ",
"1 1 1 1 h ..&.&.| | ..| _ J H J J J J J J J J J J J J J J J J J J J J J J J J J J J J J J J H J J _ &.| | &.&...| =         ",
"1 1 1 1 8 :...| ..| | &.{ H J J J J J J J J J J J J J J J J J J J J J J J J J J J J J J J J J H J | | &.| &.| | ,.,         ",
"1 1 1 1 1 k | | &.| | ..&.' J J J J H J J J J J J J J J J J J J J J J J J J J J J J J J J J H J | &.| | | | | | h           ",
"1 1 1 1 1 1 d.| | | | &...&.' H H J J J J J J J J J J J J J J J J J J J J J J J J J J J J J ) | &.&.| &.| &.| -.            ",
"      1 1 1 7 ( &.| | &.| &..._ H J H J J J J J J J J J J J J H J J J J J J J J H H J J J G { ....&.| | | | 8.7             ",
"      1 1 1 1 r ..&.&.&...&...&.{ J J J J J H J J J J J J J J J J J J J H H J J J J J J H ..&.| | &.| | | | h               ",
"      1 1 1 1   n [ ..| | | &.&.| { ) J J J J J H J J J J J J J J J J J J J H H J H J ' | | | | | &...| ..d.1               ",
"      1 1 1 1   : C ..&...&.| &.| | | ` J H J J J J J J J J J J J J J J J J J J H H { &.| | | | | ..&.| x.0 1               ",
"      1 1 1 1 1 : 8 P  .&.| | | | &.| | ..' H J H J J J J J J J J J J J J J J ` ' | | | | ..| | | &...5.q 1 1               ",
"      1 1 1 1 1 1 1 w A | | | | &.| &.| ....| ' _ ) J J J J J J J F H J ) ' { ..&.&.| &.&.| | &.| &.4.7 1 1 1             . ",
"      1 1 1 1 : 1 1 : O c [ | | | | | &...| &.&...&.| { ' ' ' ' ' { | | ..&.| ..| ..| | | | ....} Z   1 1 1 1             . ",
"      1 1 1 1 1 1 1 :   . v #.| | ..| | | | | | &.&.&.&.&.&.&.&.&.&.| &.&.&.| | | | &.| ..&.|  .z o   1 1 1 1       . .     ",
"1 1 1         1 1 1 1       : ~ } | ..&.&.| | | &.&.| | | ........| | &.&.| | | &.&.| | | ..3.9   .   1 1 1 1         1 1 : ",
"1 1 1         1 1 1 1         X & q.| ..&.&.&.&.&.| ..| | &.&.| | | | | | | &.| &.| &.| 0.l 5         : 1 1 1         1 1 1 ",
"1 1 1         1 1 1 1           . . y.( &.&.&.&.&.| | &.&...| | | &.| &.| | &.| | | o.a.8 : 5       . 1 1 1 1         1 1 1 ",
"1 1 1         1 1 1 1               . + y l.%.&.| &.&.| &.| | | ..&.| | &.| ..&.l.- 0 : : : :         1 1 1 1         1 1 1 ",
"5 5 5 1 1 1 1                         : : : 5 s D I @.O...| | | &.} #.@.I L l 2 : 1 1 .     O                 1 : 1 1 5 5 5 ",
"5 5 5 1 1 1 1                         : : : : :   . > 3 % $ $ $ $ % 3 > . . . : 1 1 1 . .                     1 1 1 1 5 5 5 ",
"5 5 5 1 1 1 1                       o : : : : :                           .   1 1 1 1 .                       1 1 1 1 5 5 5 "
};
