/* XPM */
static char *result[] = {
/* columns rows colors chars-per-pixel */
"62 62 92 1 ",
"  c #489848",
". c #408848",
"X c #277838",
"o c #438A4A",
"O c #7CA73D",
"+ c #A9C028",
"@ c #9FB51A",
"# c #9FB41A",
"$ c #9EB41A",
"% c #A7C02A",
"& c #80AC45",
"* c #529252",
"= c #C3D13F",
"- c #FEF405",
"; c #FCED01",
": c #FDEC01",
"> c #FDEC00",
", c #FCEC00",
"< c #FAEC00",
"1 c #FCF205",
"2 c #CDD73D",
"3 c #5C9754",
"4 c #D2DB41",
"5 c #FEF605",
"6 c #FBED00",
"7 c #FDED01",
"8 c #FDEE01",
"9 c #FCED00",
"0 c #FBED01",
"q c #FDF405",
"w c #DAE03E",
"e c #5B9654",
"r c #D0DB40",
"t c #FEF508",
"y c #FDED00",
"u c #FBED02",
"i c #DAE03D",
"p c #FEF408",
"a c #FCEE01",
"s c #FCED02",
"d c #DCE13D",
"f c #D0DB3F",
"g c #DBE03D",
"h c #DBE03C",
"j c #D1DB40",
"k c #488848",
"l c #CDD73C",
"z c #D8DD39",
"x c #498948",
"c c #CDD83C",
"v c #D9DE39",
"b c #D2DB40",
"n c #DDE13D",
"m c #D9DF39",
"M c #D2DB42",
"N c #FEF607",
"B c #FEF407",
"V c #D7DE3C",
"C c #28793A",
"Z c #589454",
"A c #CAD640",
"S c #FDED02",
"D c #FDEE00",
"F c #FEED01",
"G c #D7DD39",
"H c #5B9653",
"J c #D0DC3F",
"K c #FEF506",
"L c #FCED03",
"P c #FAED01",
"I c #D5DB39",
"U c #388042",
"Y c #A9C144",
"T c #F1EA19",
"R c #F9EC07",
"E c #F9EB08",
"W c #F6E90A",
"Q c #F6E908",
"! c #F6E909",
"~ c #F8EA09",
"^ c #F7EA09",
"/ c #F4ED13",
"( c #AEC641",
") c #45863F",
"_ c #619438",
"` c #679730",
"' c #67972E",
"] c #659530",
"[ c #659532",
"{ c #669632",
"} c #649738",
"| c #468840",
/* pixels */
"   ....XXXXXXXX....XXXX....XXXXXXXX....XXXX....XXXXXXXX....   ",
"   ....XXXXXXXX....XXXX.oO+@@#$$###%&..XXXX....XXXXXXXX....   ",
"   ....XXXXXXXX....XXXX.*=-;:>,,,><12..XXXX....XXXXXXXX....   ",
"...XXXX....XXXXXXXX.....34567899970qw..XXXX........XXXXXXXX...",
"...XXXX....XXXXXXXX.....ert;779yy7uqi..XXXX........XXXXXXXX...",
"...XXXX....XXXXXXXX.....erpayyyyy7s-d..XXXX........XXXXXXXX...",
"...XXXX....XXXXXXXX.....efpayyyyy7s-g..XXXX........XXXXXXXX...",
"XXXXXXXXXXX....XXXX.....efpayyyyy7s-g..XXXX....XXXXXXXX....XXX",
"XXXXXXXXXXX....XXXX.....efpayyyyy7s-h..XXXX....XXXXXXXX....XXX",
"XXXXXXXXXXX....XXXX.....efpayyyyy7s-h..XXXX....XXXXXXXX....XXX",
"XXXXXXXXXXX....XXXX.....erpayyyyy7s-h..XXXX....XXXXXXXX....XXX",
"...XXXXXXXX....XXXXXXXX.erpayyyyy7s-h..XXXX....XXXXXXXX....XXX",
"...XXXXXXXX....XXXXXXXX.ejpayyyyy7s-h..XXXX....XXXXXXXX....XXX",
"...XXXXXXXX....XXXXXXXX.ejpayyyyy7s-h..XXXX....XXXXXXXX....XXX",
"...XXXXXXXX....XXXXXXXX.ejpayyyyy7s-h..XXXX....XXXXXXXX....XXX",
".......XXXX........XXXXXklpayyyyy7s-zXXXXXXXXXX....XXXX....XXX",
".......XXXX........XXXXXklpayyyyy7s-zXXXXXXXXXX....XXXX....XXX",
".......XXXX........XXXXXklpayyyyy7s-zXXXXXXXXXX....XXXX....XXX",
".......XXXX........XXXXXklpayyyyy7s-zXXXXXXXXXX....XXXX....XXX",
"XXX....XXXXXXXX....XXXXXklpayyyyy7s-zXXXXXX........XXXX....XXX",
"XXX....XXXXXXXX....XXXXXxcpayyyyy7s-zXXXXXX........XXXX....XXX",
"XXX....XXXXXXXX....XXXXXxcpayyyyy7s-zXXXXXX........XXXX....XXX",
"XXX....XXXXXXXX....XXXXXxcpayyyyy7s-zXXXXXX........XXXX....XXX",
"XXX....XXXXXXXX........Xxcpayyyyy7s-zXX........XXXX........XXX",
"XXX....XXXXXXXX........Xxcpayyyyy7s-zXX........XXXX........XXX",
"XXX....XXXXXXXX........Xxcpayyyyy7s-zXX........XXXX........XXX",
"XXX....XXXXXXXX........Xxcpayyyyy7s-zXX........XXXX........XXX",
"XXXXXXXXXXXXXXX........Xklpayyyyy7s-zXX........XXXX....XXXXXXX",
"XXXXXXXXXXXXXXX........Xklpayyyyy7s-zXX........XXXX....XXXXXXX",
"XXXXXXXXXXXXXXX........Xklpayyyyy7s-zXX........XXXX....XXXXXXX",
"XXXXXXXXXXXXXXX........Xklpayyyyy7s-zXX........XXXX....XXXXXXX",
"XXX........XXXXXXXX....Xxcpayyyyy7s-zXX........XXXXXXXX....XXX",
"XXX........XXXXXXXX....Xxcpayyyyy7s-zXX........XXXXXXXX....XXX",
"XXX........XXXXXXXX....Xxcpayyyyy7s-zXX........XXXXXXXX....XXX",
"XXX........XXXXXXXX....Xxcpayyyyy7s-zXX........XXXXXXXX....XXX",
"XXXXXXX........XXXX....Xxcpayyyyy7s-zXX....XXXXXXXX........XXX",
"XXXXXXX........XXXX....Xxcpayyyyy7s-vXX....XXXXXXXX........XXX",
"XXXXXXX........XXXX....Xxcpayyyyy7s-vXX....XXXXXXXX........XXX",
"XXXXXXX........XXXX....Xxcpayyyyy7s-zXX....XXXXXXXX........XXX",
"XXXXXXX............XXXX.3bpayyyyy7s-zXX....XXXX........XXXXXXX",
"XXXXXXX............XXXX.3bpayyyyy7s-zXX....XXXX........XXXXXXX",
"XXXXXXX............XXXX.3bpayyyyy7s-zXX....XXXX........XXXXXXX",
"XXXXXXX............XXXX.3bpayyyyy7s-zXX....XXXX........XXXXXXX",
".......XXXX........XXXX.3bpayyyyy7s-g..XXXXXXXX........XXXXXXX",
".......XXXX........XXXX.3bpayyyyy7s-g..XXXXXXXX........XXXXXXX",
".......XXXX........XXXX.3bpayyyyy7s-g..XXXXXXXX........XXXXXXX",
".......XXXX........XXXX.3bpayyyyy7s-g..XXXXXXXX........XXXXXXX",
"XXX....XXXX....XXXX.....3bpayyyyy7s-g..XXXXXXXX........XXXXXXX",
"XXX....XXXX....XXXX.....3bpayyyyy7s-d..XXXXXXXX........XXXXXXX",
"XXX....XXXX....XXXX.....ejpayyyyy7s-d..XXXXXXXX........XXXXXXX",
"XXX....XXXX....XXXX.....ejpayyyyy7s-d..XXXXXXXX........XXXXXXX",
"XXX........XXXXXXXX.....ejpayyyyy7s-d......XXXXXXXX....XXXXXXX",
"XXX........XXXXXXXX.....ejpayyyyy7s-d......XXXXXXXX....XXXXXXX",
"XXX........XXXXXXXX.....ejpayyyyy7s-n......XXXXXXXX....XXXXXXX",
"XXX........XXXXXXXX.....ejpayyyyy7s-n......XXXXXXXX....XXXXXXX",
"...XXXX....XXXXXXXXXXXX.ejpayyyyy7s-mXX........XXXX....XXXX...",
"...XXXX....XXXXXXXXXXXX.3MN606669ysBVCX........XXXX....XXXX...",
"...XXXX....XXXXXXXXXXXX.ZABSDDF>y>s-GXX........XXXX....XXXX...",
"...XXXX....XXXXXXXXXXXX.HJKL;6S9;;PqICX........XXXX....XXXX...",
"   ....XXXXXXXXXXXX....XUYTREWQ!!~^/(XX....XXXXXXXXXXXX....   ",
"   ....XXXXXXXXXXXX....XC)_`'][[[{{}|XX....XXXXXXXXXXXX....   ",
"   ....XXXXXXXXXXXX....XXXXXXXXXXXXXXXX....XXXXXXXXXXXX....   "
};
