/* XPM */
static char *result[] = {
/* columns rows colors chars-per-pixel */
"62 62 6 1 ",
"  c #489848",
". c #408848",
"X c #277838",
"o c black",
"O c white",
"+ c #43C64B",
/* pixels */
"   ....XXXXXXXX....XXXX....XXXXXXXX....XXXX....XXXXXXXX....   ",
"   ....XXXXXXXX....XXXX....oooooooo....XXXX....XXXXXXXX....   ",
"   ....XXXXXXXX....XXXX....oooooooo....XXXX....XXXXXXXX....   ",
"...XXXX....XXXXXXXX........oooooooo....XXXX........XXXXXXXX...",
"...XXXX....XXXXXXXX........oooooooo....XXXX........XXXXXXXX...",
"...XXXX....XXXXXXXX....ooooOOOO++++ooooXXXX........XXXXXXXX...",
"...XXXX....XXXXXXXX....ooooOOOO++++ooooXXXX........XXXXXXXX...",
"XXXXXXXXXXX....XXXX....ooooOOOO++++ooooXXXX....XXXXXXXX....XXX",
"XXXXXXXXXXX....XXXX....ooooOOOO++++ooooXXXX....XXXXXXXX....XXX",
"XXXXXXXXXXX....XXXoooooOOOOOOOO++++++++oooo....XXXXXXXX....XXX",
"XXXXXXXXXXX....XXXoooooOOOOOOOO++++++++oooo....XXXXXXXX....XXX",
"...XXXXXXXX....XXXoooooOOOOOOOO++++++++oooo....XXXXXXXX....XXX",
"...XXXXXXXX....XXXoooooOOOOOOOO++++++++oooo....XXXXXXXX....XXX",
"...XXXXXXXX...ooooOOOOOOOOOOOOO++++++++++++ooooXXXXXXXX....XXX",
"...XXXXXXXX...ooooOOOOOOOOOOOOO++++++++++++ooooXXXXXXXX....XXX",
".......XXXX...ooooOOOOOOOOOOOOO++++++++++++oooo....XXXX....XXX",
".......XXXX...ooooOOOOOOOOOOOOO++++++++++++oooo....XXXX....XXX",
".......XXXooooOOOO+++++OOOO++++oooo++++oooo++++ooooXXXX....XXX",
".......XXXooooOOOO+++++OOOO++++oooo++++oooo++++ooooXXXX....XXX",
"XXX....XXXooooOOOO+++++OOOO++++oooo++++oooo++++ooooXXXX....XXX",
"XXX....XXXooooOOOO+++++OOOO++++oooo++++oooo++++ooooXXXX....XXX",
"XXX....XXXooooOOOOOOOOO++++++++++++oooo++++++++ooooXXXX....XXX",
"XXX....XXXooooOOOOOOOOO++++++++++++oooo++++++++ooooXXXX....XXX",
"XXX....XXXooooOOOOOOOOO++++++++++++oooo++++++++oooo........XXX",
"XXX....XXXooooOOOOOOOOO++++++++++++oooo++++++++oooo........XXX",
"XXX....XXXooooOOOOOOOOO++++++++++++oooo++++++++oooo........XXX",
"XXX....XXXooooOOOOOOOOO++++++++++++oooo++++++++oooo........XXX",
"XXXXXXXXXXooooOOOOOOOOO++++++++++++oooo++++++++oooo....XXXXXXX",
"XXXXXXXXXXooooOOOOOOOOO++++++++++++oooo++++++++oooo....XXXXXXX",
"XXXXXXXXXXooooOOOOOOOOO++++++++++++oooo++++++++oooo....XXXXXXX",
"XXXXXXXXXXooooOOOOOOOOO++++++++++++oooo++++++++oooo....XXXXXXX",
"XXX.......ooooOOOOOOOOO++++++++++++oooo++++++++ooooXXXX....XXX",
"XXX.......ooooOOOOOOOOO++++++++++++oooo++++++++ooooXXXX....XXX",
"XXX.......ooooOOOOOOOOO++++++++++++oooo++++++++ooooXXXX....XXX",
"XXX.......ooooOOOOOOOOO++++++++++++oooo++++++++ooooXXXX....XXX",
"XXXXXXX...ooooOOOOOOOOO++++++++++++oooo++++++++oooo........XXX",
"XXXXXXX...ooooOOOOOOOOO++++++++++++oooo++++++++oooo........XXX",
"XXXXXXX...ooooOOOOOOOOO++++++++++++oooo++++++++oooo........XXX",
"XXXXXXX...ooooOOOO+++++OOOO++++++++oooo++++++++oooo........XXX",
"XXXXXXX...ooooOOOO+++++OOOO++++++++oooo++++++++oooo....XXXXXXX",
"XXXXXXX...ooooOOOO+++++OOOO++++++++oooo++++++++oooo....XXXXXXX",
"XXXXXXX...ooooOOOO+++++OOOO++++++++oooo++++++++oooo....XXXXXXX",
"XXXXXXX...oooo+++++++++++++OOOOoooo++++oooo++++oooo....XXXXXXX",
".......XXXoooo+++++++++++++OOOOoooo++++oooo++++oooo....XXXXXXX",
".......XXXoooo+++++++++++++OOOOoooo++++oooo++++oooo....XXXXXXX",
".......XXXoooo+++++++++++++OOOOoooo++++oooo++++oooo....XXXXXXX",
".......XXXX...oooo+++++++++++++++++++++++++oooo........XXXXXXX",
"XXX....XXXX...oooo+++++++++++++++++++++++++oooo........XXXXXXX",
"XXX....XXXX...oooo+++++++++++++++++++++++++oooo........XXXXXXX",
"XXX....XXXX...oooo+++++++++++++++++++++++++oooo........XXXXXXX",
"XXX....XXXX....XXXooooo++++++++++++++++ooooXXXX........XXXXXXX",
"XXX........XXXXXXXooooo++++++++++++++++ooooXXXXXXXX....XXXXXXX",
"XXX........XXXXXXXooooo++++++++++++++++ooooXXXXXXXX....XXXXXXX",
"XXX........XXXXXXXooooo++++++++++++++++ooooXXXXXXXX....XXXXXXX",
"XXX........XXXXXXXX....oooo++++++++oooo....XXXXXXXX....XXXXXXX",
"...XXXX....XXXXXXXXXXXXoooo++++++++oooo........XXXX....XXXX...",
"...XXXX....XXXXXXXXXXXXoooo++++++++oooo........XXXX....XXXX...",
"...XXXX....XXXXXXXXXXXXoooo++++++++oooo........XXXX....XXXX...",
"...XXXX....XXXXXXXXXXXX....ooooooooXXXX........XXXX....XXXX...",
"   ....XXXXXXXXXXXX....XXXXooooooooXXXX....XXXXXXXXXXXX....   ",
"   ....XXXXXXXXXXXX....XXXXooooooooXXXX....XXXXXXXXXXXX....   ",
"   ....XXXXXXXXXXXX....XXXXooooooooXXXX....XXXXXXXXXXXX....   "
};
