/* XPM */
static char *_a28fb62651d4c6ec53a666eba3844a4hWH5O3sB6kwXLVD7[] = {
/* columns rows colors chars-per-pixel */
"62 62 255 2 ",
"   c #010100",
".  c #0D0201",
"X  c #010C04",
"o  c #000D09",
"O  c #130100",
"+  c #1D0200",
"@  c #140C06",
"#  c #011305",
"$  c #011B07",
"%  c #0A1B0C",
"&  c #06170A",
"*  c #16170A",
"=  c #111711",
"-  c #2A0300",
";  c #260603",
":  c #340301",
">  c #3C0301",
",  c #3B0908",
"<  c #281A0C",
"1  c #391813",
"2  c #2E1111",
"3  c #002007",
"4  c #00240A",
"5  c #002B0B",
"6  c #0A260E",
"7  c #00330D",
"8  c #003B0E",
"9  c #0C300C",
"0  c #052813",
"q  c #182919",
"w  c #003E11",
"e  c #083515",
"r  c #163717",
"t  c #142B09",
"y  c #292718",
"u  c #293618",
"i  c #322F12",
"p  c #3A2426",
"a  c #393A31",
"s  c #232D26",
"d  c #460604",
"f  c #590702",
"g  c #480E11",
"h  c #4B1B16",
"j  c #5B1614",
"k  c #4E140D",
"l  c #630C07",
"z  c #681515",
"x  c #661A0D",
"c  c #452B18",
"v  c #592718",
"b  c #57381B",
"n  c #4F3513",
"m  c #6D3015",
"M  c #551D27",
"N  c #6B1D25",
"B  c #5D2C26",
"V  c #463529",
"C  c #5A3738",
"Z  c #4D332C",
"A  c #72212B",
"S  c #762C26",
"D  c #7A3726",
"F  c #7A2D3D",
"G  c #762A37",
"H  c #7A353A",
"J  c #673130",
"K  c #004412",
"L  c #004C13",
"P  c #004C1A",
"I  c #07441A",
"U  c #15471B",
"Y  c #00521B",
"T  c #0B541D",
"R  c #14460E",
"E  c #2E4D18",
"W  c #2C6F17",
"Q  c #004C23",
"!  c #024627",
"~  c #164D22",
"^  c #174926",
"/  c #015223",
"(  c #005823",
")  c #00532A",
"_  c #005B2A",
"`  c #0B5B21",
"'  c #195626",
"]  c #195B29",
"[  c #015935",
"{  c #004C33",
"}  c #384729",
"|  c #27582D",
" . c #2B5628",
".. c #385D2B",
"X. c #285C33",
"o. c #2D492B",
"O. c #01622E",
"+. c #0C692E",
"@. c #006433",
"#. c #036B35",
"$. c #016C3B",
"%. c #056538",
"&. c #07763A",
"*. c #1C7435",
"=. c #146E2C",
"-. c #276832",
";. c #326936",
":. c #257335",
">. c #277838",
",. c #2A7537",
"<. c #36753C",
"1. c #2C702A",
"2. c #6F4A18",
"3. c #4B562C",
"4. c #495D31",
"5. c #524C2F",
"6. c #725031",
"7. c #47733B",
"8. c #4B6C33",
"9. c #6E6D31",
"0. c #5A5F17",
"q. c #7B3446",
"w. c #026B42",
"e. c #007445",
"r. c #00794B",
"t. c #027947",
"y. c #007E52",
"u. c #037550",
"i. c #177F44",
"p. c #397C41",
"a. c #387347",
"s. c #594B45",
"d. c #79474C",
"f. c #765B41",
"g. c #685149",
"h. c #4E7246",
"j. c #6E6B4B",
"k. c #776C6C",
"l. c #785563",
"z. c #803C38",
"x. c #88581A",
"c. c #824B28",
"v. c #895837",
"b. c #874D31",
"n. c #926838",
"m. c #977A3B",
"M. c #8F6D30",
"N. c #813A4B",
"B. c #833C53",
"V. c #864648",
"C. c #875644",
"Z. c #89455B",
"A. c #8A5456",
"S. c #925B53",
"D. c #935B5C",
"F. c #91545B",
"G. c #905A4E",
"H. c #85674A",
"J. c #946745",
"K. c #9B7849",
"L. c #9A6C55",
"P. c #96625A",
"I. c #956655",
"U. c #9C7353",
"Y. c #9F7951",
"T. c #8B6F4E",
"R. c #A07F4C",
"E. c #8C4862",
"W. c #8E5363",
"Q. c #867A7A",
"!. c #817266",
"~. c #A27E6C",
"^. c #308C34",
"/. c #3EA13E",
"(. c #2A852B",
"). c #439739",
"_. c #519331",
"`. c #49A83C",
"'. c #54AB3A",
"]. c #5AB337",
"[. c #5CAA2B",
"{. c #6CBA2B",
"}. c #66B62C",
"|. c #73BC25",
" X c #7AB929",
".X c #66B532",
"XX c #7CB332",
"oX c #6BAA32",
"OX c #65902A",
"+X c #068649",
"@X c #148B45",
"#X c #008354",
"$X c #00865A",
"%X c #008A59",
"&X c #019B5F",
"*X c #06985B",
"=X c #119D5A",
"-X c #169851",
";X c #1C934A",
":X c #3D8245",
">X c #378A4D",
",X c #289A49",
"<X c #359846",
"1X c #2E9D56",
"2X c #1CA057",
"3X c #3AA749",
"4X c #2BA451",
"5X c #23A255",
"6X c #2FA44F",
"7X c #008D62",
"8X c #009365",
"9X c #009469",
"0X c #029764",
"qX c #428345",
"wX c #408848",
"eX c #499849",
"rX c #46AB43",
"tX c #4EA64A",
"yX c #63A44B",
"uX c #7B8473",
"iX c #96842A",
"pX c #9B863A",
"aX c #908F35",
"sX c #A28939",
"dX c #AA9B3C",
"fX c #A9983C",
"gX c #A8962F",
"hX c #86B928",
"jX c #94B22E",
"kX c #A4B32D",
"lX c #B2B02E",
"zX c #AEA437",
"xX c #B1AC31",
"cX c #BAA735",
"vX c #ADA831",
"bX c #88831F",
"nX c #C1AC3F",
"mX c #A48946",
"MX c #A89342",
"NX c #B29050",
"BX c #BCAF4B",
"VX c #A89D7C",
"CX c #D3B750",
"ZX c #D7BA61",
"AX c #F0C56B",
"SX c #898585",
"DX c #988E8D",
"FX c #A3A9A5",
"GX c #A98887",
"HX c #C6B7B3",
"JX c #AAD49E",
"KX c #E8D7A8",
"LX c #DECB9B",
"PX c #D5D1CE",
"IX c #FFE8C7",
/* pixels */
"eXeXeXwXwXwXwX>.,.>.>.>.>.>.>.wXwXwXwX,.>.>.>.wXwXwXwX>.>.>.>.>.>.>.>.qXqXwXeX;.>.>.>.wXwXwXwX>.>.>.>.>.>.>.>.wXwXwXwXeXeXeX",
"eXeXeXwXwXwXwX>.,.,.>.>.>.>.>.wXwXwXh.>.>.>.>.qXf.5.qX,.>.>.>.>.;.4.b 7.7.7.qX7.>.>.>.wXwXwXwX>.>.>.>.>.>.>.>.wXwXwXwXeXeXeX",
"eXeXeXwXwXwXwX>.i.,.,.,.>.>.>.wXeX4.~.b ..>.,.v HXHXj.b g.5.n 9.9.v.dXx z.l sXsX3.,...aX9.h.qX,.>.>.>.>.>.>.>.wXwXwX:XeXeXtX",
":X>XwX,.j.D.D.j.4.4.j.,.>.>.>.>.,.s HXPXS.D U.z.L.PXPXI.F.L.V.l D sXvXvXvXfXsXc.m l 2.pXD x 4.^.wXwXwX>.>.>.>.>.>.>.>.wX:XwX",
"wXwXqX5.K.fXU.S.A z.P.h.,.>.>.>.>.| j.PXGXmXcXJ.H ~.HXVXJ.U.L.H l m x.M.dXzXsXpXm.m M.dXMXb.l 9.hXj.qX>.>.>.>.>.>.>.>.wXwXwX",
"wXwX7.6.zXdXU.U.S.P.L.F.a.>.>.>.>.:.} S.G.fXmXU.h v f.D J.U.R.B.2.0._.0.M.vXmXn.x.M.vX9.6.6.6.5.6.D 3.>.>.>.>.>.>.>.>.wXwXwX",
"wXwXC J.mXU.U.U.I.D.D.G ;.,.>.>.>.>.' Z F.I.F.D.V.j x F D.L.S.6.^.] 5 #.2.vXxXgXgXm.} <._.OX^.T 6 O , ' >.>.>.>.>.>.>.wXwXwX",
">.>.B P.L.U.U.U.L.Z.G > <.wXwX>.>.>.>.s.U.K.I.5.b 5.5.d.E.Z.G OXP 7 L %.6.vXxXzXm...'.lXvXjX|..X+X# O i >.>.>.wXwXwXwX>.>.>.",
">.>.B F.L.U.U.U.L.P.S i qXwXwX>.<.2.2.m u u < % #   X y A.E.2.W 4 K / X.J.MXzXpXt t.XXkXhX X|.|..Xw.# + i ,.>.wXwXwXwX>.>.>.",
">.,.v B.D.L.U.U.L.U.P.5.wXwXwX>.2.nXnXnXoXt._ R 9 6 $.e.s.F.-.$.# # e.5.fXMXU.B I &.6X{.{.|.|.|.|.8X[ o & ' >.wXwXwXwX>.>.>.",
">.n v.R.L.E.U.U.U.L.L.d.qXwXwX>.x.gXcXnXjX].7X#.1.`.{.`.p B.[ 8X) 5 Y p zXaXH.< *XoX X|.].'.|.|.'.9X7X@X^.+.@XwXwXwXwX>.>.>.",
"wXb J.U.U.F.D.U.U.L.F.z.7.wXwX>.2.n 0.bXyX=X9X4X}.2X2X;X2 F o.$XI 4.7 3.mXaX6.[ oXkXjX|.|.=X2X-X9X9X9XrX|..X7X>XwXwXwX>.>.>.",
"wXV V.P.W.q.F.L.L.L.P.L.H 7.:X>.2.6XyXjXeX9X9X0X5X@.I $X) ; d 3 !.a 2 8.dX9.9.y. XjX X|.|.*X9X9X9X9X%XrX|.|.rX#.wXwXwX>.>.>.",
">X<.B F q.l G.U.L.D.U.P.E.9.:X>.0.BXBXxX7.9X%X(.JXFXe $.3XO.@ X y 0.p pXaX' g.[ 4X{.|.|.3X8X$X&.=.#.%X&X].].0X#X*.wXwX>.>.>.",
"wXwX .k z > x G.V.Z.S.D.F.A 7.>.^ wXtX1X! ! 0 e tXJX9X^.|.6XO.Y ) w 3.R.T.T E 5 t.=X4X2X9Xe.^.].|..X3X0X7X$X9Xe.[ =.wX>.>.>.",
"wXwXqXu + d V.H z.N.Z.Z.Z.N 7.:Xa.^ ! 0 ] +X(.E ! $Xt.'.'.%XY L @.;.T.R.H.8 o 4 Y O.#Xy.) +XhXjX|.|.{.5X8X$.r.+Xt.Y -.>.>.>.",
"wXwXqX;.- f q.A A l z z z - a.wXwXwX>.%.R E t . uX1.`.}.;X( L 8 9 4.U.j.H.5.4 7 L 7 K K 4 +XhXlXhX|.|.4X7X( @X{.rXe.#.=.>.>.",
"wXwXwXwX| ; g B.B.d d d . | :XwXwXwX-.w.;._.KXVX`.|.'.@X7 8 L 7 r H.4.$ b ;.7X9XO.L 5 X 5 %X4X].|.|.rX9Xe.L rX|.rX$XL #.+.>.",
"wXwXwXwXh.k z N.E.q.f - % :XwXwXwXwXX.) { ,XjXXX[.%X_ 0 K L 7 * H.i % L ` $X8X9X#XL 5   4 @.8X0X*X*X7X$.L Y |.].0X$X5 @.%.>.",
">.>.,.wXwXi Z.q.q.Z.N + & >.>.wXwXwX:X0 L 5 & P &.! 7 K 5 # # 3.5.r ) '.hXXX.X0X$X/ 7     K / e.r.r._ L 8 e.rX&X9Xe.$ ) Q :.",
">.>.>.wXwX= B.z G E.N d ] ,.>.wXwXwXwX] e 5 Q e Q P $ o X # 7 r 7 ( 8XXXkX X].0X8X@.5 5 X # K L L L L K 4 e.9X9X7X/ X 8 5 :.",
">.>.>.wXwXX.d f G E.q.f u >.>.wXwXwXwX>.T #X9X@.# 7 4   $ 3   X K e.9X0X4X4X0X8XO.K 4 L 5   # 7 7 8 8 # K L $.$.) K 3 3 0 -.",
">.>.>.wXwXwXo.2 Z.B.E.f * >.>.wXwXwXwX>.` 0X].*Xe ) r.%.7 X X 7 Y #X9X9X8X$Xy._ @.Q K L 4       X X X   # K L w X K 3 3 7 :.",
">.>.>.wXwXwXwXv q.B.q.; % >.>.wXwXwXwXwX^ +.hXrXw.4 P $._ L K 5 7 P %.$.#.L L 7 O.L L K 8 #           : C 9.9.C V I o 5 e >.",
">.>.>.wXwXwXwX..M q.V.G * >.>.wXwXwXwXqXp.0 <X5Xe.w # 7 8 L L 8 4 4 5 5 8 8 7 K L L L L 5 # $       O G I.CXMXL.q.q.= 0 X.>.",
">.>.>.wXwXwX:X-.d N.A.A g ' >.wXwXwXwXeXwXX.w ) P L 8 4 K L L L L L K K K L L L L K 7 L 5 5         O z.R.KXMXL.Z.F.4.e >.>.",
">.>.>.wX>X:X:X>.u A S A., 9 ' wXwXqX3.3.3.#./.)._ # $ 3 8 K 8 5 o e w e 8 I 7 7 5 4 K K #           2 D.CXIXdXS.G d.y >.>.>.",
">.>.>.>.(.>.>.>.] d.d.y a.#Xt.E 2.2.n.sXb.[.kXhX'.e.o   X X X   2 y s q q =     7 K 5 X             = R.BXKXY.z.G 6.U >.>.>.",
">.>.>.>.>.>.>.+.<X^.P _.kX5X].=.NXKXKXAXAX9._.{.4X9XI   h v l.5.Q.SXSXSXSXVXC SXa @ @ @ d , , - +   < Y.BXZXH.q.V.u *.>.>.>.",
">.>.>.>.>.>.>.=.XX.X[ 4X].#.-X1.T.AXAXZXBXL.a.*X8Xu.w   Z P.s.SXDXW.DXg.FXPXl.Q.Z f.A.C.D.q.N .   & 0 9.T.s.1 H f.9 >.>.>.>.",
">.>.>.>.>.>.>.I ).4X! =X+X4 [ $.3.mXMXmXP.W.} #.@.L 0   V E.d k.2 FXPXk.Z PXQ.> N.E.s.B.l.N g # { ).'.|.{.=X#.< u % >.>.>.>.",
">.>.>.wXwXwX:X<.R ,XR 7 4 $ P Q i I.P.P.E.E.Z 5 5 $       ; ; g.k.SXSXDXQ.SXg   . : c 2.A : # +XXXhX|.kXjX5X=X%.  % wX>.>.>.",
">.>.>.wXwXwXwXp.(.|.,X4     [ 8 y F F G G E.p o o o   O m iXaXc C Q.DXk.p 2 v n.iXiXfXdXb.A u [.{.`.|.oX@X@X3Xu.  % wX>.>.>.",
">.>.>.wXwXwXwXp.9 _.@X& ;   K L - D n.n.C.6.y 7 7 8 X h R.MXvX6.a SXDXQ.c g m.vXgXn.mXfXD.z r `.@X_.XX^.O.3X9X)   # p.>.>.>.",
">.>.>.wXwXwXwXwX<.U -Xu.= O 7 7 * u E E i o X   X   O d.L.L.n.iXV k.Q.Q.V m.lXlXJ.q.d.I.Z.k * U r.kXXX^.&.*X+X%.    | >.>.>.",
">.>.>.>.>.>.>.wX).| ! r d > @ -.>.>.;.wX;.| | ~ U ~ h F.J M mXvXbX1 a p k pXlXdXI.B O M 2   . % O.^.#XW '.4XQ )     | >.>.>.",
">.>.>.>.>.>.>.wXwXwX>XA N l < >.>.>.>.wXwXwXqX,.*.+.Y 0 ; l U.dXx.v.x c.gXc.U.L.G +   4 _ ( 6 4 L L 7 %.`.[ $X&       >.>.>.",
">.>.>.>.>.>.>.wXwXwX:X} Z 1 X.>.>.>.>.wXwXwX:X+.@X_.3Xt.U s.F.V.v.dXfXdXlXsXG.I.d $ 5 e.9X7X_ L 5 $ # K 8 4 7 X   q X >.>.>.",
">.>.>.>.>.>.>.wXwXwXwX:Xp.:X:X>.>.>.>.wXwX:X*.`.kXjX|.}.-Xr.M , 6.Y.mXfXfXR.I.G i ( _ %X4X0X#X%Xe.#       X       X q >.>.>.",
">.>.>.>.>.>.>.wXwXwXwXwXwXwXwX:XwXwXwX>.>.#.tXkXkX X|.|.rX9XP 7 1 J.G.U.L.L.V., _ 7X*X5X].*X3X0X9XY o       X X 9 ' & >.>.>.",
">.>.>.>.>.>.>.wXwXwXwXwXwXwXwXwXwXwXwX>.*.&XhXhX|.|.|.|.rX9Xt.K = J S D.D.b.l t @.9XtX{.6X3X|.rX9Xr.4       -.6 ~ >.>.>.>.>.",
">.>.>.>.>.>.>.wXwXwXwXwXwXwXwXwXwXwXwX:.L &X{.|.|.|.{.].0X9X$.7   ; f j z l d 7 @.0XhX X|.|.|.rX9Xt.w       :X-.>.>.>.>.>.>.",
">.>.>.>.>.>.>.wXwXwXwXwXwXwXwXwXwXwXwX+.t.9X=X4X6X4X2X8X#X$.K # #   O - f f - 5 Y +X.X|.|.3X'.2X0Xe.8   O - :X>.>.>.>.>.>.>.",
"wXwXwXwXwXwXwX>.>.>.>.wXwXwXwXwXwXwX:X#.0X%Xt.%X%X0X0Xt.O._ L K $       * @     L e.5X[.{.;X+X%X$XY 8   . O p.>.>.>.>.>.>.>.",
"wXwXwXwXwXwXwX>.>.>.>.wXwXwXwXwXwXwX>.+X|.9Xy.@.y.9X9X9X0Xr.L 8       | :X<.&   5 P #.+X].{.@X$.L 3 X 8 * z r :.>.>.>.>.>.>.",
"wXwXwXwXwXwXwX>.>.>.>.wXwXwXwXwXwXwX| y.9X8X) 5 w.r.r._ L L 7 X   % >.:XwXwX| >.e K 5 $.].{.2X9XO.K K * l z * 1.>.>.>.>.>.>.",
"wXwXwXwXwXwXwX>.>.>.>.wXwXwXwXwX:XwX7./ _ / $ 4 L L L L $ @ 1 g   X ' wXwXwX:X>.:.U   K &.%X$Xe.P 4 w B F : < c >.>.>.>.>.>.",
">.>.>.wXwXwXwX>.>.>.>.wXwXwXwX>.>.>.n . o.a - # 7 9 } 4.C k q.G -   ~ wXwXwX:X>.>.:.q } K L L L 8 o 3.mXA.@ d < ..>.>.>.>.>.",
">.>.>.wXwXwXwX>.>.>.>.wXwXwXwX>.>.1.N Z K.sXV.j x x J.dXR.h 1 d O   ] wXwXwXwX>.>.:.5.Z.5.= # X . 3.dXlXMXV + - n :.,.>.>.>.",
">.>.>.wXwXwXwX>.>.>.>.wXwXwXwX>.>.,.n B K.MXK.V.R.C.6.sXm : f - > @ ] wXwXwXwX>.>.,.5.G R.c.d h 6.mXMXcXzXV + f > e >.>.>.>.",
">.>.>.wXwXwXwX>.>.>.>.wXwXwXwX>.>.>.>.h.A.b.< d > . d + ; A H v A g ~ wXwXwXwX>.>.>.,.2.lXmXC.dXlXsXv 6.G + > z > X ' >.>.>.",
">.>.>.wXwXwXwXwXwXwXwX>.>.>.>.>.>.>.>.qXV < <.| % @ - . d A V.L.N.g U :XwXwXwXwXwXwXwXb K.2.d c.pXj O - : : A G M 8 w >.>.>.",
">.>.>.wXwXwXwXwXwXwXwX>.>.>.>.>.>.>.>.wX:X:XwXwX:X;.; : N q.N.D.D.q.@ ;.wXwXwXwXwXwXwX;.b ..r r u   - : : > d q.a L K ] >.>.",
">.>.>.wXwXwXwXwXwXwXwX>.>.>.>.>.>.>.>.wXwXwXwXwXwXwX;.; g 6.6.j. .~ K r wXwXwXwXwXwXwX>.>.>.>.>.>.~ . > > d > = 8 L L r >.>.",
">.>.>.wXwXwXwXwXwXwXwX>.>.>.>.>.>.>.>.wX>X:XwXwXwXwXo.& { { 7 $.e.#.L 7 <.wXwXwXwXwXwX>.>.>.>.>.>.>.6 $ o 5 #   # 5 L ` >.>.",
"wXwXwX>.>.>.>.wXwXwXwX>.>.>.>.>.>.>.>.>.>.>.:.:X,.) w.y.9X9X$Xe.7X7X@.K e :.>.wXwXwXwXwXwX>X:X>.>.>.e K P _ 7 7 Q w 8 w ;.wX",
"wXwXwX>.>.>.>.wXwXwXwX>.>.>.>.>.>.>.>.>.>.>.+.&.O.(.+Xe.#X9X9X$Xe.$X( L 0 :.>.:XwXwXwXwX:XwXwX>.:.e / e.%X9X$.t.0Xe.L 5 | wX",
"wXwXwX>.>.>.>.wXwXwXwX>.>.>.>.>.>.>.>.>.>.:.w.@X#XrX6X7X9X9X9Xe.P Y L L % U ~ | | | | | | | | ] [ W &.=.^.&Xt.t.;X#XL   r ;.",
"wXwXwX>.>.>.>.wXwXwXwX>.>.>.>.>.>.>.>.U e 6 ! $Xe.9X8X7Xy.9X$.0 # 5 L 8                       Q ,X].=..X.X&Xr.&.,X#.7     & ",
"eXeXeXwXwXwXwX>.>.>.>.>.>.>.>.>.>.>.~                                                       X ( 7X7Xe *X9X$X[ 6X5Xt.3       ",
"eXeXeXwXwXwXwX>.>.>.>.>.>.>.>.>.>.>.:.r % % 6 % % % & % % % & % & & & % % % & X               o $ & X & 0 & o 0 4 o       X ",
"eXeXeX>XwXwXwX>.>.>.>.>.>.>.>.>.>.>.>.wXwXwXwX>.>.>.>.>.>.>.>.>.>.>.>.>.>.>.>.<.| | | ~ ~ ~ ~ ~ ~ ~ ~ ~ ^ ^ ~ X.| | | -...<."
};
