/* XPM */
static char *_cbe2d603e1c4a46b7a12d4c4ee163daXJnzcws0amAoLQSl[] = {
/* columns rows colors chars-per-pixel */
"62 62 6 1 ",
"  c #3B8938",
". c #275F24",
"X c #1E1E1E",
"o c #4C381E",
"O c #644E2B",
"+ c white",
/* pixels */
"                                                              ",
"                                                              ",
"                                                              ",
"                ................................              ",
"                ................................              ",
"                ................................              ",
"                ................................              ",
"            ........XXXXXXXXXXXXXXXXXXXXXXXX........          ",
"            ........XXXXXXXXXXXXXXXXXXXXXXXX........          ",
"            ........XXXXXXXXXXXXXXXXXXXXXXXX........          ",
"            ........XXXXXXXXXXXXXXXXXXXXXXXX........          ",
"        ........XXXXooooooooooooooooooooooooXXXX........      ",
"        ........XXXXooooooooooooooooooooooooXXXX........      ",
"        ........XXXXooooooooooooooooooooooooXXXX........      ",
"        ........XXXXooooooooooooooooooooooooXXXX........      ",
"    ........XXXXooooooooOOOOOOOOOOOOOOOOooooooooXXXX........  ",
"    ........XXXXooooooooOOOOOOOOOOOOOOOOooooooooXXXX........  ",
"    ........XXXXooooooooOOOOOOOOOOOOOOOOooooooooXXXX........  ",
"    ........XXXXooooooooOOOOOOOOOOOOOOOOooooooooXXXX........  ",
"    ....XXXXooooooooOOOOOOOOOOOOOOOOOOOOOOOOooooooooXXXX....  ",
"    ....XXXXooooooooOOOOOOOOOOOOOOOOOOOOOOOOooooooooXXXX....  ",
"    ....XXXXooooooooOOOOOOOOOOOOOOOOOOOOOOOOooooooooXXXX....  ",
"    ....XXXXooooooooOOOOOOOOOOOOOOOOOOOOOOOOooooooooXXXX....  ",
"    ....XXXXooooOOOOOOOOOOOOOOOOOOOOOOOOOOOOOOOOooooXXXX....  ",
"    ....XXXXooooOOOOOOOOOOOOOOOOOOOOOOOOOOOOOOOOooooXXXX....  ",
"    ....XXXXooooOOOOOOOOOOOOOOOOOOOOOOOOOOOOOOOOooooXXXX....  ",
"    ....XXXXooooOOOOOOOOOOOOOOOOOOOOOOOOOOOOOOOOooooXXXX....  ",
"    ....XXXXooooOOOOOOOOOOOOOOOOOOOOOOOOOOOOOOOOooooXXXX....  ",
"    ....XXXXooooOOOOOOOOOOOOOOOOOOOOOOOOOOOOOOOOooooXXXX....  ",
"    ....XXXXooooOOOOOOOOOOOOOOOOOOOOOOOOOOOOOOOOooooXXXX....  ",
"    ....XXXXooooOOOOOOOOOOOOOOOOOOOOOOOOOOOOOOOOooooXXXX....  ",
"    ....XXXXooooOOOOOOOOOOOOOOOOOOOOOOOOOOOOOOOOooooXXXX....  ",
"    ....XXXXooooOOOOOOOOOOOOOOOOOOOOOOOOOOOOOOOOooooXXXX....  ",
"    ....XXXXooooOOOOOOOOOOOOOOOOOOOOOOOOOOOOOOOOooooXXXX....  ",
"    ....XXXXooooOOOOOOOOOOOOOOOOOOOOOOOOOOOOOOOOooooXXXX....  ",
"    ....XXXXooooOOOOOOOOOOOOOOOOOOOOOOOOOOOOOOOOooooXXXX....  ",
"    ....XXXXooooOOOOOOOOOOOOOOOOOOOOOOOOOOOOOOOOooooXXXX....  ",
"    ....XXXXooooOOOOOOOOOOOOOOOOOOOOOOOOOOOOOOOOooooXXXX....  ",
"    ....XXXXooooOOOOOOOOOOOOOOOOOOOOOOOOOOOOOOOOooooXXXX....  ",
"    ....XXXXooooooooOOOOOOOOOOOOOOOOOOOOOOOOooooooooXXXX....  ",
"    ....XXXXooooooooOOOOOOOOOOOOOOOOOOOOOOOOooooooooXXXX....  ",
"    ....XXXXooooooooOOOOOOOOOOOOOOOOOOOOOOOOooooooooXXXX....  ",
"    ....XXXXooooooooOOOOOOOOOOOOOOOOOOOOOOOOooooooooXXXX....  ",
"    ........XXXXooooooooOOOOOOOOOOOOOOOOooooooooXXXX........  ",
"    ........XXXXooooooooOOOOOOOOOOOOOOOOooooooooXXXX........  ",
"    ........XXXXooooooooOOOOOOOOOOOOOOOOooooooooXXXX........  ",
"    ........XXXXooooooooOOOOOOOOOOOOOOOOooooooooXXXX........  ",
"        ........XXXXooooooooooooooooooooooooXXXX........      ",
"        ........XXXXooooooooooooooooooooooooXXXX........      ",
"        ........XXXXooooooooooooooooooooooooXXXX........      ",
"        ........XXXXooooooooooooooooooooooooXXXX........      ",
"            ........XXXXXXXXXXXXXXXXXXXXXXXX........          ",
"            ........XXXXXXXXXXXXXXXXXXXXXXXX........          ",
"            ........XXXXXXXXXXXXXXXXXXXXXXXX........          ",
"            ........XXXXXXXXXXXXXXXXXXXXXXXX........          ",
"                ................................              ",
"                ................................              ",
"                ................................              ",
"                ................................              ",
"                                                              ",
"                                                              ",
"                                                              "
};
