/* XPM */
static char *_6b2c076dd164e69db49fe314a02ed42tmMcRFueA0DK8TTK[] = {
/* columns rows colors chars-per-pixel */
"62 62 212 2 ",
"   c #489848",
".  c #408848",
"X  c #277838",
"o  c #547B41",
"O  c #676E39",
"+  c #5C6531",
"@  c #707C41",
"#  c #768245",
"$  c #7F8A4E",
"%  c #87532A",
"&  c #A98049",
"*  c #B48D52",
"=  c #316B37",
"-  c #204B25",
";  c #746B37",
":  c #B88949",
">  c #D2B732",
",  c #DBC62A",
"<  c #9E713F",
"1  c #A0BD18",
"2  c #96AF25",
"3  c #708A4B",
"4  c #000001",
"5  c #836837",
"6  c #E5B964",
"7  c #F9EB15",
"8  c #FFFB00",
"9  c #EDE10D",
"0  c #9A8B50",
"q  c #285C2E",
"w  c #102712",
"e  c #275C1D",
"r  c #3C8B29",
"t  c #5D9F35",
"y  c #79B242",
"u  c #7FBF2F",
"i  c #82C328",
"p  c #6BA73D",
"a  c #AE8D51",
"s  c #868B4E",
"d  c #29631A",
"f  c #4EAF35",
"g  c #95884B",
"h  c #1F652E",
"j  c #0A210F",
"k  c #2C7B22",
"l  c #1C6C19",
"z  c #98BE38",
"x  c #DAAF60",
"c  c #DFBB4E",
"v  c #D1C316",
"b  c #725D2E",
"n  c #506A33",
"m  c #1C5E2B",
"M  c #2E8323",
"N  c #0C5210",
"B  c #ECCA4E",
"V  c #E3D607",
"C  c #34723C",
"Z  c #0A3614",
"A  c #076D29",
"S  c #106C22",
"D  c #3F9A2D",
"F  c #2B7725",
"G  c #539642",
"H  c #538533",
"J  c #515001",
"K  c #695C12",
"L  c #05280E",
"P  c #018B36",
"I  c #087023",
"U  c #0B6019",
"Y  c #362915",
"T  c #041405",
"R  c #0A400C",
"E  c #BE9A66",
"W  c #DEC19C",
"Q  c #B2A77F",
"!  c #047D2D",
"~  c #4F703B",
"^  c #CAA879",
"/  c #FFEAC9",
"(  c #CEC8A2",
")  c #2E9E36",
"_  c #5B7C49",
"`  c #C6A582",
"'  c #776132",
"]  c #E3C8A6",
"[  c #E6CBA8",
"{  c #EDD4AE",
"}  c #BFB68C",
"|  c #028432",
" . c #269232",
".. c #3FA735",
"X. c #46AB35",
"o. c #03802F",
"O. c #547540",
"+. c #E8CEAA",
"@. c #AF9771",
"#. c #5E743D",
"$. c #926334",
"%. c #917F43",
"&. c #416122",
"*. c #806536",
"=. c #877B4E",
"-. c #05725C",
";. c #067451",
":. c #0B5F1C",
">. c #096722",
",. c #249836",
"<. c #4AAD35",
"1. c #0A4F13",
"2. c #057B3A",
"3. c #387557",
"4. c #90713D",
"5. c #446E35",
"6. c #69726B",
"7. c #00C7FF",
"8. c #00ACCE",
"9. c #082B09",
"0. c #084D1B",
"q. c #1AACD1",
"w. c #3A6A32",
"e. c #6A401F",
"r. c #646953",
"t. c #4AD3CB",
"y. c #43B6A5",
"u. c #325216",
"i. c #172B0B",
"p. c #33A036",
"a. c #0C1306",
"s. c #38754E",
"d. c #53B2A7",
"f. c #566534",
"g. c #4B2C15",
"h. c #27140B",
"j. c #A7831E",
"k. c #CBC800",
"l. c #11411C",
"z. c #387A40",
"x. c #385715",
"c. c #929001",
"v. c #95880E",
"b. c #583E20",
"n. c #073C11",
"m. c #2F1F10",
"M. c #9B7830",
"N. c #767D07",
"B. c #654F2C",
"V. c #8E6F40",
"C. c #2B4421",
"Z. c #095E1F",
"A. c #1B120B",
"S. c #534B27",
"D. c #175023",
"F. c #0A571B",
"G. c #062007",
"H. c #08340D",
"J. c #0A4B12",
"K. c #095C22",
"L. c #0F3A18",
"P. c #1F2715",
"I. c #492A1F",
"U. c #6D6257",
"Y. c #CDE3D4",
"T. c #7AA07E",
"R. c #084416",
"E. c #07712B",
"W. c #4A7A4D",
"Q. c #ABC2BB",
"!. c #30506A",
"~. c #264556",
"^. c #180D0B",
"/. c #5D372B",
"(. c #8A736B",
"). c white",
"_. c #97AF98",
"`. c #5B825C",
"'. c #D5DCE3",
"]. c #3F6586",
"[. c #252A12",
"{. c #6F4322",
"}. c #7D4C2A",
"|. c #734D34",
" X c #515152",
".X c #60523C",
"XX c #6E5223",
"oX c #436F2D",
"OX c #665231",
"+X c #5A534F",
"@X c #775744",
"#X c #73523C",
"$X c #403418",
"%X c #526F31",
"&X c #514A3F",
"*X c #F7E1BE",
"=X c #6C8430",
"-X c #E7CCA8",
";X c #938672",
":X c #311B15",
">X c #192312",
",X c #264A1F",
"<X c #327E33",
"1X c #498C33",
"2X c #5E9A33",
"3X c #458E2C",
"4X c #261310",
"5X c #3A291C",
"6X c #73452A",
"7X c #2B2616",
"8X c #5A351F",
"9X c #1C4321",
/* pixels */
"      . . . . X X X X X X X X . . . . X X X X . . o O + @ # # # # # # $ $ O O + X X X . . . . X X X X X X X X . . . .       ",
"      . . . . X X X X X X X X . . . . X X X X . . O % % & * * * * * * * * % % % X X X . . . . X X X X X X X X . . . .       ",
"      . . . . X X X X X X X X . . . . X X X X . . O % % & * * * * * * * * % % % X X X . . . . X X X X X X X X . . . .       ",
". . . X X X X . . . . X X X X X X X X . . . = - - ; : : > , , , , , * * * < < < 1 1 2 $ $ 3 . . . . . X X X X X X X X . . . ",
". . . X X X X . . . . X X X X X X X X . . . - 4 4 5 6 6 7 8 8 8 8 8 * * * * * * 8 8 9 * * 0 . . . . . X X X X X X X X . . . ",
". . . X X X X . . . . X X X X X X X X . . . - 4 4 5 6 6 7 8 8 8 8 8 * * * * * * 8 8 9 * * 0 . . . . . X X X X X X X X . . . ",
". . . X X X X . . . . X X X X X X X X q w w e r r t y y u i i i i i p p p p p p 8 8 9 * * a 0 0 s . . X X X X X X X X . . . ",
"X X X X X X X X X X X . . . . X X X X - 4 4 d f f f f f f f f f f f f f f f f f 8 8 9 * * * * * g X X X X X X . . . . X X X ",
"X X X X X X X X X X X . . . . X X X X - 4 4 d f f f f f f f f f f f f f f f f f 8 8 9 * * * * * g X X X X X X . . . . X X X ",
"X X X X X X X X X X X . . . . X h j j e r r k l l l l l l l l l l l l l l l l l i i z x x c 9 9 v b b n X X X . . . . X X X ",
"X X X X X X X X X X X . . . . X m 4 4 d f f M N N N N N N N N N N N N N N N N N f f y 6 6 B 8 8 V % % + X X X . . . . X X X ",
". . . X X X X X X X X . . . . X m 4 4 d f f M N N N N N N N N N N N N N N N N N f f y 6 6 B 8 8 V % % + X X X . . . . X X X ",
". . . X X X X X X X X . . C w j Z A A S l l M D D D D D D D D D D D D D D D D D l l F G G H J J K & & @ X X X . . . . X X X ",
". . . X X X X X X X X . . = 4 4 L P P I N N M f f f f f f f f f f f f f f f f f N N U P P A 4 4 Y * * # X X X . . . . X X X ",
". . . X X X X X X X X . . = 4 4 L P P I N N M f f f f f f f f f f f f f f f f f N N U P P A 4 4 Y * * # X X X . . . . X X X ",
". . . . . . . X X X X . . = 4 4 T N N M f f f f f f f f f f f f f f f f f f f f f f D N N R 4 4 w . . X X X X . . . . X X X ",
". . . . . . . X X X X . . = 4 4 T N N M f f f f f f f f f f f f f f f f f f f f f f D N N R 4 4 w . . X X X X . . . . X X X ",
". . . . . . . X X X X . . = 4 4 T N N M f f f f f f f f f f f f f f f f f f f f f f D N N R 4 4 w . . X X X X . . . . X X X ",
". . . . . . . X * * E W W Q N N U P P I N N M f f f f f f f f f f f f f f f f f N N U P P ! N N ~ W W ^ * * # . . . . X X X ",
"X X X . . . . X * * E W W Q N N U P P I N N M f f f f f f f f f f f f f f f f f N N U P P ! N N ~ W W ^ * * # . . . . X X X ",
"X X X . . . . X * * E W W Q N N U P P I N N M f f f f f f f f f f f f f f f f f N N U P P ! N N ~ W W ^ * * # . . . . X X X ",
"X X X . . % % % / / / / / ( N N U P P P P P ) f f f f f f f f f f f f f f f f f P P P P P ! N N _ / / / / / ` % % O . X X X ",
"X X X . . % % % / / / / / ( N N U P P P P P ) f f f f f f f f f f f f f f f f f P P P P P ! N N _ / / / / / ` % % O . X X X ",
"X X X . . ' ' b ] ] [ { { } N N U P P | ! !  .....X.f f f f f f f f f f f ......! ! o.P P ! N N O.{ { +.] ] @.' ' #.. X X X ",
"X X X . . . . X % % $.* * %.N N U P P I N N I P P ) f f f f f f f f f f f P P P N N U P P ! N N &.* * < % % O . . . . X X X ",
"X X X . . . . X % % $.* * %.N N U P P I N N I P P ) f f f f f f f f f f f P P P N N U P P ! N N &.* * < % % O . . . . X X X ",
"X X X . . . . X b b *.& & =.-.-.;.! ! :.R R >.P P ,.....<.f f f f f ......P P P R R 1.! ! 2.-.-.3.& & 4.' ' #.. . . . X X X ",
"X X X X X X X X X X 5.% % 6.7.7.8.N N 9.4 4 0.P P P P P ..f f f f f P P P P P P 4 4 T N N -.7.7.q.% % O . . . X X X X X X X ",
"X X X X X X X X X X 5.% % 6.7.7.8.N N 9.4 4 0.P P P P P ..f f f f f P P P P P P 4 4 T N N -.7.7.q.% % O . . . X X X X X X X ",
"X X X X X X X X X X w.e.e.r.t.t.y.u.u.i.4 4 0.P P P P P p...........P P P P P P 4 4 a.u.u.s.t.t.d.e.e.f.. . . X X X X X X X ",
"X X X X X X X X X X m 4 4 J 8 8 V % % g.4 4 0.P P P P P P P P P P P P P P P P P 4 4 h.% % j.8 8 k.4 4 - . . . X X X X X X X ",
"X X X . . . . . . . = 4 4 J 8 8 V % % g.4 4 0.P P P P P P P P P P P P P P P P P 4 4 h.% % j.8 8 k.4 4 l.X X X . . . . X X X ",
"X X X . . . . . . . z.l.l.x.c.c.v.< < b.4 4 n.I I ! P P P P P P P P P P P I I I 4 4 m.< < M.c.c.N.l.l.m X X X . . . . X X X ",
"X X X . . . . . . . . X X m 4 4 Y * * B.4 4 9.N N I P P P P P P P P P P P N N N 4 4 Y * * V.4 4 j X X X X X X . . . . X X X ",
"X X X . . . . . . . . X X m 4 4 Y * * B.4 4 9.N N I P P P P P P P P P P P N N N 4 4 Y * * V.4 4 j X X X X X X . . . . X X X ",
"X X X X X X X . . . . . . z.- l.C.B.B.Y 4 4 T 9.9.Z.P P P P P P P P P P P 9.9.9.4 4 A.B.B.S.l.l.D.X X . . . . . . . . X X X ",
"X X X X X X X . . . . . . . . X m 4 4 4 4 4 4 4 4 0.P P P P P P P P P P P 4 4 4 4 4 4 4 4 j X X X X X . . . . . . . . X X X ",
"X X X X X X X . . . . . . . . X m 4 4 4 4 4 4 4 4 0.P P P P P P P P P P P 4 4 4 4 4 4 4 4 j X X X X X . . . . . . . . X X X ",
"X X X X X X X . . . . . . C w j Z A A F.R R G.4 4 H.U U o.P P P P P U U U 4 4 4 R R J.A A K.j j L.X X . . . . . . . . X X X ",
"X X X X X X X . . . . . . = 4 4 L P P I N N 9.4 4 9.N N ! P P P P P N N N 4 4 4 N N U P P A 4 4 w . . . . . . X X X X X X X ",
"X X X X X X X . . . . . . = 4 4 L P P I N N 9.4 4 9.N N ! P P P P P N N N 4 4 4 N N U P P A 4 4 w . . . . . . X X X X X X X ",
"X X X X X X X . . . C w w P.I.I.U.Y.Y.T.N N :.A A R.T T E.P P P P P T T T A A A N N W.Y.Y.Q.!.!.~.w w q . . . X X X X X X X ",
"X X X X X X X . . . = 4 4 ^././.(.).)._.N N I P P 0.4 4 A P P P P P 4 4 4 P P P N N `.).).'.].].!.4 4 - . . . X X X X X X X ",
". . . . . . . X X X m 4 4 ^././.(.).)._.N N I P P 0.4 4 A P P P P P 4 4 4 P P P N N `.).).'.].].!.4 4 - . . . X X X X X X X ",
". . . . . . . X j j [.e.e.{.}.}.|. X X.XXXXXoXP P 0.4 4 J.U U U U U 4 4 4 P P P XXXXOX X X+X@X@X#Xe.e.$Xw w q X X X X X X X ",
". . . . . . . X 4 4 h.% % % % % e.4 4 g.% % %XP P 0.4 4 R N N N N N 4 4 4 P P P % % e.4 4 h.% % % % % g.4 4 - X X X X X X X ",
". . . . . . . X 4 4 h.% % % % % e.4 4 g.% % %XP P 0.4 4 R N N N N N 4 4 4 P P P % % e.4 4 h.% % % % % g.4 4 - X X X X X X X ",
"X X X . . . . X 4 4 &X/ / *XW W Q N N M f f =X% % % % % h.4 4 4 4 4 % % % % % % f f D N N ~ W W -X/ / ;X4 4 - X X X X X X X ",
"X X X . . . . X 4 4 &X/ / *XW W Q N N M f f =X% % % % % h.4 4 4 4 4 % % % % % % f f D N N ~ W W -X/ / ;X4 4 - X X X X X X X ",
"X X X . . . . X 4 4 &X/ / *XW W Q N N M f f =X% % % % % h.4 4 4 4 4 % % % % % % f f D N N ~ W W -X/ / ;X4 4 - X X X X X X X ",
"X X X . . . . X X X m 4 4 4 4 4 4 4 4 d f f f f f f f f f f f f f f f f f f f f f f r 4 4 4 4 4 4 4 4 - . . . X X X X X X X ",
"X X X . . . . . . . = 4 4 4 4 4 4 4 4 d f f f f f f f f f f f f f f f f f f f f f f r 4 4 4 4 4 4 4 4 - . . . X X X X X X X ",
"X X X . . . . . . . = 4 4 4 4 4 4 4 4 d f f f f f f f f f f f f f f f f f f f f f f r 4 4 4 4 4 4 4 4 - . . . X X X X X X X ",
"X X X . . . . . . . . X X m 4 4 ^././.:X4 4 0.P P ) f f f f f f f f f f f P P P 4 4 ^././.I.4 4 j X X . . . . X X X X X X X ",
"X X X . . . . . . . . X X m 4 4 ^././.:X4 4 0.P P ) f f f f f f f f f f f P P P 4 4 ^././.I.4 4 j X X . . . . X X X X X X X ",
". . . X X X X . . . . X X h j j >XI.I.:X^.^.,X<X<X1X2X2X3Xr r r r r 2X2X2X<X<X<X^.^.4XI.I.5Xw j L.X X . . . . X X X X . . . ",
". . . X X X X . . . . X X X X X m 4 4 :X/./.6X% % % % % h.4 4 4 4 4 % % % % % % /./.I.4 4 w . X X X X . . . . X X X X . . . ",
". . . X X X X . . . . X X X X X m 4 4 :X/./.6X% % % % % h.4 4 4 4 4 % % % % % % /./.I.4 4 w . X X X X . . . . X X X X . . . ",
". . . X X X X . . . . X X X X X h j j 7XI.I.8Xe.e.e.e.e.[.j j j j j e.e.e.e.e.e.I.I.5Xw w 9X. X X X X . . . . X X X X . . . ",
"      . . . . X X X X X X X X X X X X - 4 4 4 4 4 4 4 4 m X X X X X 4 4 4 4 4 4 4 4 w X X X X X X X X X X X X . . . .       ",
"      . . . . X X X X X X X X X X X X - 4 4 4 4 4 4 4 4 m X X X X X 4 4 4 4 4 4 4 4 w X X X X X X X X X X X X . . . .       ",
"      . . . . X X X X X X X X X X X X q w w w j j j j j h X X X X X j j j j j w w w 9XX X X X X X X X X X X X . . . .       "
};
