/* XPM */
static char *_d9d27e94d2c4fbfb2582c11d131c032AUnYAZ1KKLVbuOTU[] = {
/* columns rows colors chars-per-pixel */
"62 62 191 2 ",
"   c #000001",
".  c #030A05",
"X  c #190D0B",
"o  c #110C09",
"O  c #041506",
"+  c #27140B",
"@  c #311B15",
"#  c #261612",
"$  c #0A210F",
"%  c #05280E",
"&  c #082B09",
"*  c #102712",
"=  c #0E3312",
"-  c #342F16",
";  c #0F1B28",
":  c #27352C",
">  c #4A2B18",
",  c #48381B",
"<  c #403418",
"1  c #51351E",
"2  c #5D372B",
"3  c #563822",
"4  c #453B30",
"5  c #4F3C20",
"6  c #683E2B",
"7  c #60392A",
"8  c #0A400C",
"9  c #084D1B",
"0  c #11411C",
"q  c #134815",
"w  c #0C5210",
"e  c #0B5C19",
"r  c #115B1B",
"t  c #0B6119",
"y  c #1C6C19",
"u  c #2B721F",
"i  c #1C5E2B",
"p  c #175023",
"a  c #0C5820",
"s  c #204B25",
"d  c #375837",
"f  c #24522D",
"g  c #076D29",
"h  c #096C25",
"j  c #1C692B",
"k  c #087023",
"l  c #047D2D",
"z  c #0A762B",
"x  c #1F7D37",
"c  c #1F7231",
"v  c #15712D",
"b  c #226B32",
"n  c #316B37",
"m  c #277838",
"M  c #2A7637",
"N  c #327C36",
"B  c #3B461F",
"V  c #515001",
"C  c #6A401F",
"Z  c #514A3F",
"A  c #4B4F2F",
"S  c #674D29",
"D  c #6B5225",
"F  c #725D2E",
"G  c #516928",
"H  c #446E35",
"J  c #526F31",
"K  c #4F703B",
"L  c #527D3F",
"P  c #45742A",
"I  c #766B30",
"U  c #42600D",
"Y  c #003E52",
"T  c #20374A",
"R  c #387A40",
"E  c #30506A",
"W  c #515152",
"Q  c #404842",
"!  c #735648",
"~  c #54774B",
"^  c #7E6D58",
"/  c #73695A",
"(  c #737D42",
")  c #446079",
"_  c #87532A",
"`  c #9E713F",
"'  c #836837",
"]  c #A06F3B",
"[  c #A4792C",
"{  c #8E6F40",
"}  c #957E44",
"|  c #837C73",
" . c #018B36",
".. c #0C8936",
"X. c #1A9436",
"o. c #158A3B",
"O. c #2E8323",
"+. c #2C8029",
"@. c #3C8B29",
"#. c #318524",
"$. c #3F9A2D",
"%. c #37982F",
"&. c #2E9E36",
"*. c #22913A",
"=. c #3FA635",
"-. c #5C9A33",
";. c #4EAF35",
":. c #47A737",
">. c #5BA828",
",. c #70A727",
"<. c #3A8444",
"1. c #408848",
"2. c #489848",
"3. c #5B9A5B",
"4. c #7C874B",
"5. c #5BA460",
"6. c #A7831E",
"7. c #A0BD18",
"8. c #BCA03B",
"9. c #99992B",
"0. c #C6AE10",
"q. c #C8AA3E",
"w. c #CAA837",
"e. c #D7BE37",
"r. c #98C518",
"t. c #82C328",
"y. c #ACD121",
"u. c #CBC800",
"i. c #E4D50C",
"p. c #D4E609",
"a. c #FFFB00",
"s. c #FCF408",
"d. c #F9EB15",
"f. c #EDE10D",
"g. c #DBC62A",
"h. c #DFD13B",
"j. c #F3DB34",
"k. c #E3D22E",
"l. c #F6E326",
"z. c #909440",
"x. c #9A8B50",
"c. c #90894C",
"v. c #B6924F",
"b. c #B48D52",
"n. c #B5884A",
"m. c #A1B44F",
"M. c #B0997C",
"N. c #B1926D",
"B. c #938672",
"V. c #C39955",
"C. c #CEA35A",
"Z. c #CDB74F",
"A. c #DAAF60",
"S. c #C8AB7B",
"D. c #E5B964",
"F. c #ECCA4E",
"G. c #E8C159",
"H. c #C9C447",
"J. c #3F6586",
"K. c #3F68AC",
"L. c #6D80A9",
"P. c #7890A7",
"I. c #00C7FF",
"U. c #41C3DC",
"Y. c #9596A5",
"T. c #A4BCBE",
"R. c #919092",
"E. c #CAA783",
"W. c #D9B98D",
"Q. c #CBBB9F",
"!. c #DABD92",
"~. c #98C7A5",
"^. c #DEC19C",
"/. c #FFEE9F",
"(. c #CEC8A2",
"). c #E3C8A6",
"_. c #E7CCA8",
"`. c #E8CEAA",
"'. c #EDD4AE",
"]. c #EFD6B3",
"[. c #F7E1BE",
"{. c #FAE8A3",
"}. c #A8B8C5",
"|. c #90D8E5",
" X c #9AC5C2",
".X c #CDE3D4",
"XX c #FFEAC9",
"oX c #FFF2DE",
"OX c white",
"+X c #FFFAF2",
"@X c #FFF5E4",
/* pixels */
"2.2.2.1.1.1.1.m m m m m m m m 1.1.1.1.m m m m <.1.1.<.R o.....z e r N :.:.I I F } c.c.x.x.c.<.x m m m m m m m <.1.1.1.2.2.2.",
"2.2.2.1.1.1.1.m m m m m m m m 1.1.1.1.m m m m <.1.1.<.x x  . .l w w O.;.;.I _ _ x.b.b.b.b.x.<.R m m m c m m R 1.1.1.1.2.2.2.",
"2.2.2.1.1.1.1.m m m m m m m m 1.1.1.1.m R x +.<.1.1.1.R x  . .l w w O.;.;.I _ _ ` b.b.b.b.x.1.m m R x x m m x <.1.1.1.2.2.2.",
"1.1.1.m m m m 1.1.1.1.m m m m m m m m 1.o. . .=.;.;.;.;.;.;.:.:.w w O.;.;.Z.D.D.D.D.D.a.a.d.D.D.C.b.b.4.m m m m m m m 1.1.1.",
"1.1.1.m m m m 1.1.1.1.m M M M M m m m <.o. . .=.;.;.;.;.;.;.;.$.w w O.;.;.Z.D.D.D.D.D.a.a.d.D.D.C.v.b.( m m m m m m m 1.1.<.",
"1.1.1.m m m m 1.1.1.1.m c j c o.x x x <.*.X.X.:.;.;.;.;.;.;.;.$.w w O.;.;.H.F.F.F.F.F.d.d.l.F.F.Z.w.V.z.~ L N m m m m 1.1.<.",
"1.1.1.m m m m 1.1.1.1.c w w t  . . . . .=.;.;.;.;.;.;.;.;.;.;.$.w w #.;.;.p.a.a.a.a.a.D.D.F.a.a.a.a.a.g.b.b.~ m m m m 1.1.1.",
"m m m m m m m m m m m N w w t  . . . . .=.;.;.;.;.;.;.;.;.;.;.$.w e #.;.;.p.a.a.a.a.a.D.D.F.a.a.a.a.a.e.b.b.-.<.1.1.1.m m m ",
"m m m m m m m m m j t b t k l  . .X.&.&.;.;.;.;.;.;.;.;.:.u O.O.+.#.-.m.m.F.j.j.s.a.a.D.D.G.j.j.j.j.j.k.e.g.z.c.4.<.1.m m m ",
"m m m m m m m m m w w e  . . . . .&.;.;.;.;.;.;.;.;.;.;.:.w w y ;.;.m.D.D.D.D.D.d.a.a.D.D.D.D.D.D.D.D.j.a.s.w.n.b.<.1.m m m ",
"m m m m m m m m m w w t  . . . . .&.;.;.;.;.;.;.;.;.;.;.$.w w y ;.;.m.D.D.D.D.D.d.a.a.D.D.D.D.D.D.D.D.j.s.s.Z.b.v.1.1.m m m ",
"1.1.1.m m m j j j k k z  . . . . .&.;.;.%.O.O.O.u #.;.;.$.w w y ;.;.y.j.j.j.j.j.g.g.g.n.n.V.D.D.C.n.n.8.0.7.z.c.4.1.1.m m m ",
"1.1.1.m m m r w w  . . . . . . . .&.;.;.y w w w w w ;.;.$.w w y ;.;.y.a.a.a.a.a.Z.b.b._ _ ] D.D.n._ _ _ _ _ H 1.1.1.<.<.x m ",
"1.1.1.m m m r w w  . . . . . . . .&.;.;.y w w w w w ;.;.$.w w y ;.;.y.a.a.a.a.a.w.n.b._ _ ] D.D.V._ _ _ _ _ H 1.1.1.<.m m m ",
"1.1.1.p $ $ h l l  . . . . . . . ...X.X.%.$.$.$.$.$.y y u $.$.,.p.p.k.F.F.Z.V.w.S.W.W.E.E.N., , A n H n H H M 1.1.1.1.m m m ",
"1.1.1.s     g  . . . . . . . . . . . . .=.;.;.;.;.;.w w y ;.;.t.a.a.j.D.D.V.b.b.W.^.^.!.^.M.    q -.~ x M M m 1.1.1.1.R m m ",
"1.1.1.s     g  . . . . . . . . . . . . .=.;.;.;.;.;.w w y ;.;.t.a.a.j.D.D.V.v.b.W.^.^.^.^.M.o   s 1.1.m m m m 1.1.1.1.m m m ",
"1.1.1.s     g  . . . . . . . . . . . . . . . .t w w  . . . . .>.a.a.j.D.D.!.^.^.[.XXXX^.^.M.    s 1.1.m m m m 1.1.1.1.m m m ",
"1.1.1.s     k  . . . . . . . . . . . . . . . .t w w  . . . . .>.a.a.j.D.D.!.^.^.[.XXXX^.^.R.    s 1.1.m m m m 1.1.1.1.m m m ",
"m m m s     t  . . . . . . . . . . . . . . . .e w w  . . . . .>.a.a.j.D.D.!.^.^.[.XXXX^.Q.E.    s 1.1.m m m m 1.1.1.1.m m m ",
"0     & w w l  . . . . .w w w w w k  . .t w w l  . .w w G D.D.A.b.b.g.a.a./.XXXXQ     _ _ S     s 1.1.m m m m 1.1.1.1.m m m ",
"0     & w w l  . . . .l w w w w w k  . .t w w .. . .w w G G.D.A.b.b.g.a.a./.XXXXZ     _ _ C     s 1.1.m m m m 1.1.1.1.m m m ",
"0     & w w l  . ...l h 8 8 8 w w t  .l L ~ ~ 5.5.5.K K 4.V.C.V.V.V.e.f.f.{.XXXX| W W ! ! ! 4 4 d n n b m m m 1.1.1.1.m m m ",
"0     & w w l  . .w w =     O w w w w w (.XX[.XXXXXX^.^.S._ _ [ D.D.V.b.b.'.XXXX+XOXOXK.K.L.^.!.{     s 1.1.1.1.1.1.1.m m m ",
"0     & w w  . . .w w =     O w w w w w (.XXXXXXXXXX!.^.E._ _ ` D.D.C.b.b.`.XXXX+XOXOXK.K.L.^.^./     s 1.1.1.1.1.1.1.m m m ",
"0     & w w l  . .& & = 0 0 = & & & & & M.!.!.[.XXXX].].!._ _ [ j.j.Z.] { `.XXXX+XOXOXK.K.L.^.^.^     s 1.1.1.1.1.1.1.m m m ",
"0     & w w l  . .    $ m m j           ' b.b.'.XXXXXXXX)._ _ [ a.a.0._ _ _.XXXX+XOXOXK.K.L.^.^.^     s 1.1.1.1.1.1.1.m m m ",
"0     & w w l  . .    $ m m i           { b.b.'.XXXXXXXX)._ _ 6.a.a.0._ _ _.XXXX+XOXOXK.K.L.^.!.^     f 1.1.1.m m m m m m m ",
"j 0 0 = & & e k k     $ m m b s s *     , S S S.!.!.|.|. Xn.n.w.a.a.0._ _ ).XXXXoXoX@XY.Y.R.{ | W 0 0 n 1.1.1.m m m m m m m ",
"m m m 0     8 w w     $ m m m 1.1.s         . { b.b.I.I.U.D.D.F.a.a.0._ _ ).XXXXXXXXXX!.^.M.    0 m m 1.1.1.1.m m m m m m m ",
"m m m 0     8 w w     $ m m m 1.<.r           ' b.b.I.I.U.D.D.F.a.a.0._ _ ).XXXXXXXXXX^.!.R.    0 m m 1.1.1.1.m m m m m m m ",
"m m m N n n * O O n n j m m m m m 9.u.u.q.v.v.S @ - Y Y ~ d.d.i.6.6.b.E.E.^._._._.`.`.4 4 A n i c m m m m m m 1.1.1.1.m m m ",
"m m m 1.1.1.*     1.1.m m m m m m 7.a.a.F.D.D.,         V a.a.i._ _ N.^.^.^.^.^.^.^.^.    * 1.m m m m m m m m 1.1.1.1.m m m ",
"m m m 1.1.1.*     1.1.m m m m m m 7.a.a.F.D.D.,         V a.a.i._ _ N.^.^.^.^.^.^.^.^.    * 1.m m m m m m m m 1.1.1.1.m m m ",
"m m m 1.1.1.1.1.1.1.1.m m m m m m 0           8 w w     , D.D.v.    & w w w w w O     1.1.1.1.m m m m m m m m 1.1.1.1.m m m ",
"m m m m m m m 1.1.1.1.1.1.1.1.m m 0           8 w w     , D.D.n.    & w w w w w O     m m m m m m m m 1.1.1.1.1.1.1.1.m m m ",
"m m m m m m m 1.1.1.1.1.1.1.1.m m 0     X + + w t t % % B v.v.x., , - 8 8 e t t O     i j b m m m m m 1.1.1.1.1.1.1.1.m m m ",
"m m m m m m m 1.1.1.1.1.1.1.1.m m 0     C _ _ N  . . . .g     , D.D.'     g  . .%         O m m m m m 1.1.1.1.1.1.1.1.m m m ",
"m m m m m m m 1.1.1.1.1.1.1.1.m m 0     C _ _ N  . . . .g     , D.D.'     g  . .%         $ m m m m m 1.1.1.1.1.1.1.1.m m m ",
"m m m m m m m 1.1.1.1.1.1.1.<.n n s ; ; 3 C 6 P N N  . .z + + 1 v.v.D     g  . .U V V = = q i n R 1.1.1.1.1.1.m m m m m m m ",
"m m m m m m m 1.1.1.1.1.1.1.n     T J.J.;     C _ _  . .@._ _ C           g  . .p.a.a.;.;.@.    s 1.1.1.1.1.1.m m m m m m m ",
"m m m m m m m 1.1.1.1.1.1.1.n     T J.J.;     C _ _  . .N _ _ C       .   g  . .p.a.a.;.;.@.    s 1.1.1.1.1.1.m m m m m m m ",
"m m m m m m m 1.1.1.1.R s s d { ^ W T T = & & D _ _ G J G > > - 9 9 W R.R.R 9 9 ,.r.r.;.;.@.    s 1.1.1.1.1.1.m m m m m m m ",
"1.1.1.1.1.1.1.m m m m n     4 ).^.^     = w w D _ _ _ _ 6     %  . .~.OXOXW     h  . .;.;.@.    s 1.1.1.1.1.1.m m m m m m m ",
"1.1.1.1.1.1.1.m m m m n     4 ).^.{   . & 8 w D _ _ _ _ S     %  . .~.OXOXW     g  . .;.;.@.    s 1.1.1.1.1.1.m m m m m m m ",
"1.1.1.1.1.1.1.m m m m n     o 4 4 s = 8 #.:.:.-.-.-.-.-.P     Q .X.X}.P.P.) E E 0 % % X.X.v     s 1.1.1.1.1.1.m m m m m m m ",
"1.1.1.1.1.1.1.m m m m n           & w w $.;.;.;.;.;.;.;.@.    W OXOX}.J.J.J.J.J.;      . .g     s 1.1.1.1.1.1.m m m m m m m ",
"m m m 1.1.1.1.m m m m n           & w w $.;.;.;.;.;.;.;.@.    W OXOX}.J.J.J.J.J.;      . .g     f 1.1.1.1.1.1.m m m m m m m ",
"m m m 1.1.1.1.m m m m <.n n f     . O O v X.X.:.;.;.;.;.:.g g b W W ! ! ! F ! ! #     % % O     s 1.1.1.1.1.1.m m m m m m m ",
"m m m 1.1.1.1.m m m m 1.1.1.n           g  . .=.;.;.;.;.=. . .g     > _ _ _ _ _ +               s 1.1.1.1.1.1.m m m m m m m ",
"m m m 1.1.1.1.m m m m 1.1.1.n           g  . .=.;.;.;.;.=. . .g     > _ _ _ _ _ +               s 1.1.1.1.1.1.m m m m m m m ",
"m m m 1.1.1.1.1.1.1.1.m m m i     > _ _ +     k  . .;.;.;.;.;.@.    B.XXXXXXXXXXZ     2 2 2 2 2 @           n m m m m m m m ",
"m m m 1.1.1.1.1.1.1.1.m m m i     > _ _ +     z  . .;.;.;.;.;.@.    B.XXXXXXXXXXZ     2 2 2 2 2 @           n m m m m m m m ",
"m m m 1.1.1.1.1.1.1.1.m m m i     > _ _ @ X X r g g @.@.@.@.@.u     / Q.Q.Q.Q.Q.4     2 2 7 6 6 > + + o     n m m m m m m m ",
"m m m 1.1.1.1.1.1.1.1.m m m i     > _ _ 6 2 2 X                                       2 2 6 _ _ _ _ _ >     n m m m m m m m ",
"1.1.1.m m m m 1.1.1.1.m m m i     > _ _ 6 2 2 X                                       2 2 6 _ _ _ _ _ >     n m m m m 1.1.1.",
"1.1.1.m m m m 1.1.1.1.m m m b $ $ - C C 2 2 2 # X X       $ $ $ $ $ $ $ $ $ $ * .     > > 1 6 6 C C C < * * n m m m m 1.1.1.",
"1.1.1.m m m m 1.1.1.1.m m m m m m 0     > 2 2 2 2 2     $ m m m m m m m m m m 1.*                     s 1.1.1.m m m m 1.1.1.",
"1.1.1.m m m m 1.1.1.1.m m m m m M 0     > 2 2 7 2 2     $ m m m m m m m m m m 1.*             .   .   s 1.1.1.m m m m 1.1.1.",
"2.2.2.1.1.1.1.m m m m m m m m m m i 0 s - @ @ @ @ @     $ m m m m m m m m m m 1.f s s 0 0 0 0 0 0 0 = j m m m 1.1.1.1.2.2.2.",
"2.2.2.1.1.1.1.m m m m m m m m m m m m 1.*               $ R m m m m m m m m m 1.1.1.1.m m m m m m m m m m m m 1.1.1.1.2.2.2.",
"2.2.2.1.1.1.1.m m m m m m m m m m m m 1.*               $ x m m m m m m m m m 1.1.1.1.m m m m m m m m m m m m 1.1.1.1.2.2.2."
};
