/* XPM */
static char *e7cf638fe567444fdb1b79332497308eWk659PZ8bfmEzDwz[] = {
/* columns rows colors chars-per-pixel */
"62 62 186 2 ",
"   c #000001",
".  c #060906",
"X  c #180D0B",
"o  c #041407",
"O  c #27140B",
"+  c #2F1E0F",
"@  c #311B15",
"#  c #2F1E12",
"$  c #0A210F",
"%  c #05280E",
"&  c #082B0A",
"*  c #102712",
"=  c #0F3712",
"-  c #2D2B14",
";  c #472B19",
":  c #49361B",
">  c #5D372B",
",  c #583E28",
"<  c #453B30",
"1  c #683E2B",
"2  c #084D1B",
"3  c #0E4719",
"4  c #11411C",
"5  c #0C5210",
"6  c #1B6B1B",
"7  c #184B22",
"8  c #1C5E2B",
"9  c #155123",
"0  c #1F4038",
"q  c #204B25",
"w  c #324A27",
"e  c #076D29",
"r  c #0D6222",
"t  c #1F652E",
"y  c #067829",
"u  c #117A2C",
"i  c #226B32",
"p  c #316B37",
"a  c #277838",
"s  c #287D32",
"d  c #327E33",
"f  c #34723C",
"g  c #2C6326",
"h  c #36401C",
"j  c #51521D",
"k  c #444418",
"l  c #6A401F",
"z  c #4C4936",
"x  c #654F2C",
"c  c #76472A",
"v  c #6B5426",
"b  c #6C4E36",
"n  c #446E35",
"m  c #526F31",
"M  c #5C6531",
"N  c #506F2E",
"B  c #6D622D",
"V  c #7A6C2D",
"C  c #676E39",
"Z  c #20374A",
"A  c #387A40",
"S  c #575547",
"D  c #515152",
"F  c #4F5040",
"G  c #775750",
"H  c #715749",
"J  c #587C45",
"K  c #7E6D58",
"L  c #776B5E",
"P  c #777451",
"I  c #87532A",
"U  c #824F2A",
"Y  c #856738",
"T  c #936435",
"R  c #9E713F",
"E  c #A06F3B",
"W  c #A07637",
"Q  c #886C45",
"!  c #9E714B",
"~  c #95744B",
"^  c #957E59",
"/  c #A77D59",
"(  c #A47954",
")  c #A97C48",
"_  c #897569",
"`  c #018B36",
"'  c #1A9436",
"]  c #2E9E36",
"[  c #249836",
"{  c #368A2B",
"}  c #3FA735",
"|  c #37A235",
" . c #4B9038",
".. c #6C8532",
"X. c #65862B",
"o. c #4EAF35",
"O. c #5BA828",
"+. c #6BA73D",
"@. c #79B930",
"#. c #3D8144",
"$. c #158D73",
"%. c #408848",
"&. c #458546",
"*. c #489848",
"=. c #78884B",
"-. c #78995F",
";. c #5D8B69",
":. c #918D05",
">. c #A7831E",
",. c #B38F34",
"<. c #C6B210",
"1. c #C8AA3F",
"2. c #D2BA35",
"3. c #CCB230",
"4. c #98C518",
"5. c #82C328",
"6. c #D0C709",
"7. c #E3D50E",
"8. c #EDE10D",
"9. c #FFFB00",
"0. c #F9EB15",
"q. c #DBC62A",
"w. c #EAD726",
"e. c #F3DB34",
"r. c #ECD531",
"t. c #938A4B",
"y. c #859F44",
"u. c #9A9350",
"i. c #A98049",
"p. c #B48D52",
"a. c #B6924F",
"s. c #938672",
"d. c #95836B",
"f. c #B48D69",
"g. c #BD9865",
"h. c #A58C71",
"j. c #85A66D",
"k. c #C19956",
"l. c #D7B547",
"z. c #CFA157",
"x. c #CDA55B",
"c. c #C8A44B",
"v. c #DAAF60",
"b. c #C9A778",
"n. c #C7A568",
"m. c #E5B964",
"M. c #ECCA4E",
"N. c #E3C349",
"B. c #EBCB48",
"V. c #C8E752",
"C. c #3F6586",
"Z. c #3F68AC",
"A. c #00A1A6",
"S. c #788CB4",
"D. c #60A194",
"F. c #7891C2",
"G. c #00C7FF",
"H. c #3DC5E8",
"J. c #92AE93",
"K. c #B9B188",
"L. c #A8ACBB",
"P. c #CAA783",
"I. c #C6A582",
"U. c #D3B38C",
"Y. c #D9BC93",
"T. c #C6B0A1",
"R. c #8FE092",
"E. c #98C7A5",
"W. c #99CC88",
"Q. c #DEC19C",
"!. c #CEC8A2",
"~. c #E7CCA8",
"^. c #E3C8A6",
"/. c #EDD4AE",
"(. c #EFD6B3",
"). c #F3DCB9",
"_. c #F7E1BE",
"`. c #E1C59C",
"'. c #AEB7CE",
"]. c #E4DAD1",
"[. c #FFEAC9",
"{. c #FFEFD7",
"}. c #D5DDE7",
"|. c white",
" X c #FFFAF2",
".X c #CED8CE",
/* pixels */
"*.*.*.%.%.%.%.a a a a a a a a %.%.%.%.a a 4     e ` ` ` ` ` ` ` ` ` `     * %.A a a a #.*.$.*.a a a a a a a a %.%.%.%.*.*.*.",
"*.*.*.%.%.%.%.a a a a a a a a %.%.%.%.a a 4     e ` ` ` ` ` ` ` ` ` `     * #.a a a #.#.#.#.%.s a a a a a a a %.%.%.%.*.*.*.",
"*.*.*.%.%.%.%.a a a a a a a a %.%.%.#.8 8 3 % % u ' ' ' ' ' ' ' ' ' ' % % = A 8 u a u #.*.#.#.#.a a a a a a a %.%.%.%.*.*.*.",
"%.%.%.a a a a %.%.%.%.a a a a a a a 8     2 ` ` } o.o.o.o.o.o.o.o.o.o.` ` e     4 a #.#.#.#.#.*.%.%.%.a a a a a a a a %.%.%.",
"%.%.%.a a a a %.%.%.%.a a a a a a a t     2 ` ` } o.o.o.o.o.o.o.o.o.o.` ` e     4 A a #.#.#.#.#.%.%.%.a a a a a a a a %.%.%.",
"%.%.%.a a a a %.%.%.%.a a a a a 9 4 4 2 2 e ` ` [ ] ] ] ] ] ] ] ] ] ] ` ` y 2 2 2 4 7 A %.%.#.#.%.%.%.a a a a a a a a %.%.%.",
"%.%.%.a a a a %.%.%.%.a a a a a $   % ` ` ` ` ` ` ` ` ` ` ` ` ` ` ` ` ` ` ` ` ` 2     p %.%.%.#.%.%.%.a a a a a a a a %.%.%.",
"a a a a a a a a a a a %.%.%.%.a $   % ` ` ` ` ` ` ` ` ` ` ` ` ` ` ` ` ` ` ` ` ` 2     p %.%.%.A a a a a a a a %.%.%.%.a a a ",
"a a a a a a a a a a a %.%.q     e ` ' o.o.o.o.o.o.o.o.o.o.o.o.o.o.o.o.o.o.o.o.o.] ` ` %   * %.a a a a a a a a %.%.%.%.a a a ",
"a a a a a a a a a a a %.%.q     e ` ' o.o.o.o.o.o.o.o.o.o.o.o.o.o.o.o.o.o.o.o.o.] ` ` %   * %.a a a a a a a a %.%.%.%.a a a ",
"a a a a a a a a a a a %.%.q     e ' ] +.+.@.5.5.5.5.5.+.+.+.+.+.@.5.5.+.+.+.+.+. .' ' &   * %.a a a a a a a a %.%.%.%.a a a ",
"%.%.%.a a a a a a a a %.%.q      .o.+.p.p.q.9.9.9.9.9.p.p.p.p.p.8.9.9.p.a.p.p.p.y.o.o.=   * %.a a a a a a a a %.%.%.%.a a a ",
"%.%.%.a a a a a a a a %.%.q     { o.+.p.p.q.9.9.9.9.9.p.p.p.p.p.8.9.9.p.a.a.p.p.y.o.o.=   * &.a a a a a a a a %.%.%.%.a a a ",
"%.%.%.a a a a a a a i q 7 9 2 2 ..y.y.p.p.q.9.9.w.q.q.q.q.2.p.p.8.9.9.q.q.l.p.p.u.y.y.g 2 2 q 4 t a a a a a a %.%.%.%.a a a ",
"%.%.%.a a a a a a a 8     2 ` ` t.p.p.p.p.q.9.9.1.p.p.9.9.8.p.p.8.9.9.9.9.8.p.p.p.p.a. .` e     4 a a a a a a %.%.%.%.a a a ",
"%.%.%.%.%.%.%.a a a 8     2 ` ` t.p.p.p.p.q.9.9.1.p.p.9.9.8.p.p.8.9.9.9.9.8.p.p.p.p.p.{ ` e     q %.%.a a a a %.%.%.%.a a a ",
"%.%.%.%.#.=.u.t.K.K.h.c l v B B k.v.N.8.8.r.M.M.w.8.8.1.1.2.8.8.r.M.M.c.c.2.8.8.2.p.p.Y B v x l ^ K.K.u.t.t.a %.%.%.%.a a a ",
"%.%.%.%.#.t.p.p.Q.Q.I.I I I U U z.m.M.9.9.e.m.m.0.9.9.p.p.1.9.9.M.m.m.p.a.1.9.9.q.p.p.T I I I I f.Y.^.g.p.p.a %.%.%.%.a a a ",
"%.%.%.%.#.=.i.i.^.~.Y.i.( ! T T l.M.B.8.8.r.M.M.w.8.8.p.p.1.9.9.N.v.v.g.g.c.8.8.q.1.c.R T T / / P.~.~.g.) ) a %.%.%.%.a a a ",
"a a a %.%.J I I [.[.[.[._.Q.p.p.8.9.8.p.p.q.9.9.1.a.p.p.p.1.9.9.1.p.p.Q.Q.U.a.a.q.9.9.3.p.b.[.[.[.{.[./ I I a %.%.%.%.a a a ",
"a a a %.%.C I I [.[.[.[.[.Q.a.p.8.9.8.p.p.q.9.9.1.p.p.p.p.c.9.9.1.a.p.`.Q.U.p.p.q.9.9.c.a.b.[.[.[.[.[./ I I a %.%.%.%.a a a ",
"a a a %.#.J C M b.K.U.(./.b.R R 3.q.2.x.x.r.9.9.w.q.q.x.x.c.<.<.n.b.b.(.(.`.p.p.l.e.e.c.a.n.(.(.Y.I.I.P M M a %.%.%.%.a a a ",
"a a a %.%.%.%.a I I ! Y.Q.f.I I ) p.k.m.m.e.9.9.9.9.9.m.m.z.I I P.Q.Q.[.[./.p.p.x.m.m.k.p.g.Q.Q.f.I I n a a a %.%.%.%.a a a ",
"a a a %.%.%.%.a I I ! Q.Q.f.I I i.p.k.m.m.e.9.9.9.9.9.m.m.z.I I P.Q.Q.[.[./.p.p.x.m.m.a.p.g.Q.Q.f.I I J %.%.%.%.%.%.%.a a a ",
"a a a %.%.%.%.a n n ;.H.H.W.7.7.,.T W m.m.m.M.M.l.1.1.E E ) P.P./._._.[.[.).U.U.g.E E 6.8.V.H.H.D.p n &.%.%.%.%.%.%.%.a a a ",
"a a a %.%.%.%.a a a $.G.G.R.9.9.>.I E m.m.m.m.m.a.p.p.I I ! Q.Q._.[.[.[.[._.Q.Q.f.I I 7.9.V.G.G.A.a a %.%.%.%.%.%.%.%.a a a ",
"a a a %.%.%.%.a a a $.G.G.R.9.9.>.I E m.m.m.m.m.k.p.p.I I ! Q.Q._.[.[.[.[._.Q.Q.f.I I 7.9.V.G.G.A.a a %.%.%.%.%.%.%.%.a a a ",
"a a a a a a a a a a 8     :.9.9.1.p.Q     v p.p.T I I Q.Q.~.[.[.~.Q.Q.I I l     x p.a.8.9.6.    = a a %.%.%.%.a a a a a a a ",
"a a a a a a a a a a 8     :.9.9.1.a.~     x p.p.T I I Y.Q.~.[.[.~.Q.Q.I I 1     x p.p.8.9.6.    4 a a %.%.%.%.a a a a a a a ",
"a a a a a a a a a a 8     :.0.0.,.i.~ D D L s.d.Q I I ~.~.(.[.[.Y.P.P.G G H D D Q ( i.w.0.<.    4 a a %.%.%.%.a a a a a a a ",
"a a a a a a a a a a 8     Y m.m.! I h.|.|.'.Z.Z.G I I [.[.[.[.[./ I I Z.Z.F.|.|.T.I I z.m.a.    4 a a %.%.%.%.a a a a a a a ",
"a a a %.%.%.%.%.%.%.p     Y m.m.E I / |.|.'.Z.Z.G I I [.[.[.[.[./ I I Z.Z.F.|.|.T.I I z.m.a.    4 a a a a a a %.%.%.%.a a a ",
"a a a %.%.%.%.%.%.%.#.8 8 w : : + O H {.{.'.Z.Z.'.].].[.[.[.[.[.].].].Z.Z.S.{.{.h.O O ; : k A 8 i a a a a a a %.%.%.%.a a a ",
"a a a %.%.%.%.%.%.%.%.a a 7         F [.[.L.Z.Z.}.|.|.[.[.[.[.[. X|.|.Z.Z.S.[.[.s..       * #.a a a a a a a a %.%.%.%.a a a ",
"a a a %.%.%.%.%.%.%.%.a a 4         F [.[.L.Z.Z.}.|.|.[.[.[.[.[. X|.|.Z.Z.S.[.[.s.        % #.A a a a a a a a %.%.%.%.a a a ",
"a a a a a a a %.%.%.%.%.%.%.%.a *   - p.p.U.[.[.[.[.[.[.[.[.[.[.[.[.[.[.[./.p.p.x     8 a a a a a a a %.%.%.%.%.%.%.%.a a a ",
"a a a a a a a %.%.%.%.%.%.%.%.a $   - p.a.Q.[.[.[.[.[.[.[.[.[.[.[.[.[.[.[./.p.p.x     8 a a a a a a a %.%.%.%.%.%.%.%.a a a ",
"a a a a a a a %.%.%.%.%.%.A p 8 = % - p.,.b.^.~.)._._._._._._._._._._.^.^.U.i.i.x % % 9 8 t a a a a a %.%.%.%.%.%.%.%.a a a ",
"a a a a a a a %.%.%.%.%.%.q     e ` d I c I I I P.Q.Q.Q.Q.Q.Q.Q.Q.Q.Q.I I I I I m ` ` %   % a a a a a %.%.%.%.%.%.%.%.a a a ",
"a a a a a a a %.%.%.%.%.%.q     e ` d I I I I I P.Q.Q.Q.Q.Q.Q.Q.Q.Q.Q.I I I I I m ` ` %   % A #.%.%.%.%.%.%.%.a a a a a a a ",
"a a a a a a a %.%.%.A 7 q 0 Z Z D.E.J.j j j N N -.j.j.j.j.j.j.j.j.j.j.m N N j j -.E.E.F @ @ 7 7 p %.%.%.%.%.%.a a a a a a a ",
"a a a a a a a %.%.%.p     Z C.C.}.|..X5 5 u ` ` ` ` ` ` ` ` ` ` ` ` ` ` ` y 5 5 J.|.|._ > ;     q %.%.%.%.%.%.a a a a a a a ",
"a a a a a a a %.%.%.p     Z C.C.}.|..X5 5 6 ` ` ` ` ` ` ` ` ` ` ` ` ` ` ` y 5 5 J.|.|._ > ;     7 %.%.%.%.%.%.a a a a a a a ",
"%.%.%.%.%.%.%.a $ $ - l c c H H S D S v v N ` ` ` ` ` ` ` ` ` ` ` ` ` ` ` s v v S D D b c c l c : * * f %.%.%.a a a a a a a ",
"%.%.%.%.%.%.%.a     O I I I I I @   O I I m ` ` ` ` ` ` ` ` ` ` ` ` ` ` ` s I I ;     1 I I I I ; .   p %.%.%.a a a a a a a ",
"%.%.%.%.%.%.%.a     # ! ! ( / ( - o - V V m d d d d d O.O.O.O.O. .d d d { N V V k o o Q / ( ! ! >     p %.%.%.a a a a a a a ",
"%.%.%.%.%.%.%.a     < Q.Q.(.[.[.J 5 6 o.o...I I I I I 9.9.9.9.9.W I U I I V o.o.{ 5 5 !.[._.Q.Q.L   . A %.%.%.a a a a a a a ",
"a a a %.%.%.%.a     < Q.Q.(.[.[.J 5 6 o.o...I I I I I 9.9.9.9.9.>.I I I I B o.o.{ 5 5 !.[._.Q.Q.L     A %.%.%.a a a a a a a ",
"a a a %.%.%.%.a 4 4 w K K _ s.s.w & 5 ] ]  .....m m m 4.4.4.4.4.X.N N X.X.X.[ ] 6 % & L s.d.K K M 7 8 #.#.#.#.#.a a a a a a ",
"a a a %.%.%.%.a a a t               % ` ` ] o.o.' ` ` ` ` ` ` ` ` ` ` o.o.o.` ` 2               q #.#.#.#.#.#.' a a a a a a ",
"a a a %.%.%.%.a a a 8               % ` ` ] o.o.' ` ` ` ` ` ` ` ` ` ` O.o.} ` ` 2               q #.#.#.#.#.#.#.a a a a a a ",
"a a a %.%.%.%.%.%.%.#.8 t 8 8 8 o   . % % r ' ' | } } } o.| } } o.} } ' ' u % % o     7 t 8 8 8 i A A #.#.#.#.a a a a a a a ",
"a a a %.%.%.%.%.%.%.%.a a a a a $         2 ` ` | o.o.o.o.o.o.o.o.o.o.` ` e           8 a a a a a a a %.*.%.%.' a a a a a a ",
"a a a %.%.%.%.%.%.%.%.a a a a a $         2 ` ` o.o.o.o.o.o.o.o.o.o.o.` ` e           8 a a a a a a a %.#.*.#.A a a a a a a ",
"a a a %.%.%.%.%.%.%.%.a a 4     l I U > > @                               X > > c I I O   $ a a a a a %.%.%.%.a a a a a a a ",
"%.%.%.a a a a %.%.%.%.a a 4     l I c > > @                               X > > c I I O   * %.a a a a %.%.%.%.a a a a %.%.%.",
"%.%.%.a a a a %.%.%.%.a a 4     l I I c c : @ @ .     7 4 4 4 4 o     @ @ ; c c c I I O   * %.a a a a %.%.%.%.a a a a %.%.%.",
"%.%.%.a a a a %.%.%.%.a a 4     l I I I I c > > X     a a a a a $     > > > I I I I I O   * %.a a a a %.%.%.%.a a a a %.%.%.",
"%.%.%.a a a a %.%.%.%.a a 4     l I I I I c > > X     a a a a a $     > > c I I I I I O   * %.a a a a %.%.%.%.a a a a %.%.%.",
"*.*.*.%.%.%.%.a a a a a a i 8 8 - O O O O O X X 7 8 8 a a a a a t 8 8 X X X O O O O O 7 8 t a a a a a a a a a %.%.%.%.*.*.*.",
"*.*.*.%.%.%.%.a a a a a a a a a o               8 a a a a a a a a a a                 8 a a a a a a a a a a a %.%.%.%.*.*.*.",
"*.*.*.%.%.%.%.a a a a a a a a a $               8 a a a a a a a a a a                 8 a a a a a a a a a a a %.%.%.%.*.*.*."
};
