/* XPM */
static char *dbd536c754d144079d31627aac4ca2f3RVKCYZIsa7lWW9TB[] = {
/* columns rows colors chars-per-pixel */
"62 62 232 2 ",
"   c #489848",
".  c #408848",
"X  c #277838",
"o  c #B48D52",
"O  c #87532A",
"+  c #6D622D",
"@  c #018B36",
"#  c #047D2D",
"$  c #0C5210",
"%  c #1C6C19",
"&  c #4EAF35",
"*  c #3FA735",
"=  c #26893F",
"-  c #E5B964",
";  c #FFFB00",
":  c #9D954B",
">  c #3F9A2D",
",  c #2E9E36",
"<  c #148137",
"1  c #61894A",
"2  c #C8AA3F",
"3  c #DAAF60",
"4  c #EDE10D",
"5  c #C19856",
"6  c #A79E4F",
"7  c #37A235",
"8  c #1A9436",
"9  c #1D8837",
"0  c #348943",
"q  c #348240",
"w  c #347B3B",
"e  c #3A8242",
"r  c #C4B759",
"t  c #087023",
"y  c #276E2D",
"u  c #186525",
"i  c #527D3F",
"p  c #ECCA4E",
"a  c #D3C845",
"s  c #82C328",
"d  c #6BAF24",
"f  c #27771F",
"g  c #42A02F",
"h  c #0F7B29",
"j  c #0B6019",
"k  c #146825",
"l  c #1F6F2E",
"z  c #237333",
"x  c #D8E909",
"c  c #A98049",
"v  c #CFA157",
"b  c #FAF503",
"n  c #C9D519",
"m  c #4AAA33",
"M  c #47A532",
"N  c #067629",
"B  c #267636",
"V  c #2E8323",
"C  c #725D2E",
"Z  c #E3D607",
"A  c #9E714B",
"S  c #BE9A66",
"D  c #E4D41B",
"F  c #B2A93E",
"G  c #6BA73D",
"H  c #5A9934",
"J  c #388E29",
"K  c #2E8A29",
"L  c #249836",
"P  c #DEC19C",
"I  c #8E6F40",
"U  c #E7CCA8",
"Y  c #CFB44F",
"T  c #9A944B",
"R  c #32962F",
"E  c #16701F",
"W  c #3EA032",
"Q  c #196B2B",
"!  c #3E8544",
"~  c #000001",
"^  c #FFEAC9",
"/  c #E6D07B",
"(  c #918C4B",
")  c #CAA783",
"_  c #CBBB9F",
"`  c #ECD784",
"'  c #97894A",
"]  c #327E33",
"[  c #287D32",
"{  c #077326",
"}  c #0A671F",
"|  c #028432",
" . c #FFEE9F",
".. c #6E5223",
"X. c #11411C",
"o. c #7E6D58",
"O. c #655D71",
"+. c #929292",
"@. c #F6E2A6",
"#. c #DBC62A",
"$. c #D7BE37",
"%. c #CDA45C",
"&. c #BD9150",
"*. c #876338",
"=. c #848C5E",
"-. c #889265",
";. c #98A378",
":. c #5B8A51",
">. c #095E1F",
",. c #084D1B",
"<. c #1B4C21",
"1. c #204B25",
"2. c #226B32",
"3. c #3F68AC",
"4. c white",
"5. c #EDD4AE",
"6. c #082B09",
"7. c #041405",
"8. c #1C5E2B",
"9. c #E8CEAA",
"0. c #9E713F",
"q. c #B48E3D",
"w. c #F3DB34",
"e. c #D9BC32",
"r. c #A37752",
"t. c #EFD6B3",
"y. c #F3DBB8",
"u. c #DBBE91",
"i. c #7F7B54",
"p. c #113C17",
"a. c #0C3612",
"s. c #0A4F15",
"d. c #0B5915",
"f. c #E3C8A6",
"g. c #A7831E",
"h. c #A77D59",
"j. c #654F2C",
"k. c #9596A5",
"l. c #FFF5E4",
"z. c #EDE116",
"x. c #B48D69",
"c. c #ABA18B",
"v. c #90D8E5",
"b. c #A3D1D1",
"n. c #A48962",
"m. c #362915",
"M. c #102712",
"N. c #316B37",
"B. c #0B490F",
"V. c #F7ED2C",
"C. c #AFC2B7",
"Z. c #00C7FF",
"A. c #2CB8D9",
"S. c #0A400C",
"D. c #E1C4A1",
"F. c #B89555",
"G. c #C6AE10",
"H. c #D0BA24",
"J. c #EEDF57",
"K. c #BDC466",
"L. c #007192",
"P. c #15687B",
"I. c #755C31",
"U. c #836837",
"Y. c #8A7D1A",
"T. c #929001",
"R. c #6C8C24",
"E. c #0A300D",
"W. c #18431E",
"Q. c #CBC800",
"!. c #A9C523",
"~. c #0A210F",
"^. c #76764E",
"/. c #4B2C15",
"(. c #7B601D",
"). c #C1AE28",
"_. c #020A04",
"`. c #4B4C1F",
"'. c #285C2E",
"]. c #387A40",
"[. c #48381B",
"{. c #B6924F",
"}. c #0A571B",
"|. c #283014",
" X c #89A24F",
".X c #6D8E42",
"XX c #084E18",
"oX c #076D29",
"OX c #05280E",
"+X c #404842",
"@X c #CDE3D4",
"#X c #A3B8A8",
"$X c #515152",
"%X c #CBCBCB",
"&X c #5BA828",
"*X c #281F1E",
"=X c #8A736B",
"-X c #6C5953",
";X c #063B13",
":X c #0A4A1B",
">X c #175023",
",X c #180D0B",
"<X c #5D372B",
"1X c #492A1F",
"2X c #6A401F",
"3X c #5E9A33",
"4X c #564C22",
"5X c #663D2B",
"6X c #7D4C2A",
"7X c #784927",
"8X c #3B3416",
"9X c #683E2B",
"0X c #4B8F31",
"qX c #0C5820",
"wX c #57473A",
"eX c #DDC09D",
"rX c #725E49",
"tX c #514A3F",
"yX c #F7E1BE",
"uX c #27140B",
"iX c #12350E",
"pX c #117C2D",
"aX c #041D0B",
"sX c #141110",
"dX c #4E463B",
"fX c #453B30",
"gX c #241E16",
"hX c #021207",
"jX c #174C23",
"kX c #110A09",
"lX c #261310",
"zX c #311B15",
/* pixels */
"      . . . . X X X X X X X X . o o o O O + @ @ # $ $ % & & & & & * @ @ = . . X X X X . . . . X X X X X X X X . . . .       ",
"      . . . . X X X X X X X X . o o o O O + @ @ # $ $ % & & & & & * @ @ = . . X X X X . . . . X X X X X X X X . . . .       ",
"      . . . . X X X X X X X X . o o o O O + @ @ # $ $ % & & & & & * @ @ = . . X X X X . . . . X X X X X X X X . . . .       ",
". . . X X X X . . . o o o - - - ; ; ; o o : & & > $ $ % & & & & & & & & & & & , @ @ < . . . . . . . . X X X X X X X X . . . ",
". . . X X X X . . . o o o - - - ; ; ; o o : & & > $ $ % & & & & & & & & & & & , @ @ < . . . . . . . . X X X X X X X X . . . ",
". . . X X X X 1 1 1 2 2 2 3 3 3 4 4 4 5 5 6 & & > $ $ % & & & & & & & & & & & 7 8 8 9 0 0 q w w e . . X X X X X X X X . . . ",
". . . X X X X o o o ; ; ; o o o o o o - - r & & > $ $ % & & & & & & & & & & & & & & , @ @ t $ $ y . . X X X X X X X X . . . ",
"X X X X X X X o o o ; ; ; o o o o o o - - r & & > $ $ % & & & & & & & & & & & & & & , @ @ t $ $ u X X X X X X . . . . X X X ",
"X X X X i i i 2 2 2 4 4 4 5 5 5 5 5 5 p p a s s d % % f > > g & & & & & & & & & & & 7 8 8 h j j k l l z X X X . . . . X X X ",
"X X X X o o o ; ; ; o o o - - - - - - ; ; ; ; ; x & & > $ $ % & & & & & & & & & & & & & & , @ @ t $ $ u X X X . . . . X X X ",
"X X X X o o o ; ; ; o o o - - - - - - ; ; ; ; ; x & & > $ $ % & & & & & & & & & & & & & & , @ @ t $ $ u X X X . . . . X X X ",
". . . X c c c ; ; ; 5 5 5 v v v 3 3 3 ; ; b 4 4 n & & > $ $ % & & m > > > > > M & & & & & , @ @ N j j k l l B . . . . X X X ",
". . . X O O O ; ; ; - - - O O O o o o ; ; 4 o o : & & > $ $ % & & > $ $ $ $ $ V & & & & & , @ @ @ @ @ t $ $ l . . . . X X X ",
". . . X O O O ; ; ; - - - O O O o o o ; ; 4 o o : & & > $ $ % & & > $ $ $ $ $ V & & & & & , @ @ @ @ @ t $ $ l . . . . X X X ",
". . . X C C C Z Z Z 3 3 3 A A A S S S 4 4 D 2 2 F G G H % % f > > J % % % % % K * * * * * L @ @ @ @ @ t $ $ l . . . . X X X ",
". . . . . . . O O O o o o P P P P P P o o 2 ; ; 4 o o : & & > $ $ % & & & & & , @ @ @ @ @ @ @ @ @ @ @ t $ $ l . . . . X X X ",
". . . . . . . O O O o o o P P P P P P o o 2 ; ; 4 o o : & & > $ $ % & & & & & , @ @ @ @ @ @ @ @ @ @ @ t $ $ l . . . . X X X ",
". . . . . . . C C C I I I P P P U U U S S Y ; ; 4 o o T * * R j j E > > W * * L @ @ @ @ @ @ @ @ @ @ @ N j j Q w w ! . X X X ",
". . . . . . . X X X ~ ~ ~ P P P ^ ^ ^ P P / ; ; 4 o o ( @ @ @ @ @ # $ $ t @ @ @ @ @ @ @ @ @ @ @ @ @ @ @ @ @ j $ $ w . X X X ",
"X X X . . . . X X X ~ ~ ~ P P P ^ ^ ^ P P / ; ; 4 o o ( @ @ @ @ @ # $ $ t @ @ @ @ @ @ @ @ @ @ @ @ @ @ @ @ @ j $ $ w . X X X ",
"X X X . . . . X X X ~ ~ ~ ) ) ) _ _ _ U U ` ; ; 4 o o ' ] ] [ # # { $ $ } # # | @ @ @ @ @ @ @ @ @ @ @ @ @ @ j $ $ w . X X X ",
"X X X . . . . X X X ~ ~ ~ O O O ~ ~ ~ ^ ^  .; ; 4 o o c O O ..$ $ $ $ $ $ $ $ t @ @ @ @ @ @ @ @ @ @ @ @ @ @ j $ $ w . X X X ",
"X X X . . . . X X X ~ ~ ~ O O O ~ ~ ~ ^ ^  .; ; 4 o o c O O ..$ $ $ $ $ $ $ $ t @ @ @ @ @ @ @ @ @ @ @ @ @ @ j $ $ w . X X X ",
"X X X . . . . X.X.X.o.o.o.O.O.O.+.+.+.^ ^ @.#.#.$.%.%.&.O O *.=.=.-.;.;.;.;.;.:.t t t t t >.,.,.>.t t # @ @ j $ $ <.1.X.2.X ",
"X X X . . . . ~ ~ ~ P P P 3.3.3.4.4.4.^ ^ 5.o o 5 - - v O O A P P U ^ ^ ^ ^ ^ ;.$ $ $ $ $ 6.~ ~ 6.$ $ t @ @ j $ $ 7.~ ~ 8.X ",
"X X X . . . . ~ ~ ~ P P P 3.3.3.4.4.4.^ ^ 5.o o 5 - - v O O A P P U ^ ^ ^ ^ ^ ;.$ $ $ $ $ 6.~ ~ 6.$ $ t @ @ j $ $ 7.~ ~ 8.X ",
"X X X . . . . ~ ~ ~ P P P 3.3.3.4.4.4.^ ^ 9.0.0.q.w.w.e.O O r.t.t.y.^ ^ 5.u.u.i.6.6.6.6.6.p.1.X.a.6.6.s.t t d.$ $ 7.~ ~ 8.X ",
"X X X X X X X ~ ~ ~ P P P 3.3.3.4.4.4.^ ^ f.O O g.; ; Z O O h.^ ^ ^ ^ ^ u.o o j.~ ~ ~ ~ ~ 1.. X X.~ ~ 6.$ $ $ $ $ 7.~ ~ 8.X ",
"X X X X X X X ~ ~ ~ P P P 3.3.3.4.4.4.^ ^ f.O O g.; ; Z O O h.^ ^ ^ ^ ^ u.o o j.~ ~ ~ ~ ~ 1.. X X.~ ~ 6.$ $ $ $ $ 7.~ ~ 8.X ",
"X X X X X X X X.X.X.o.o.o.k.k.k.l.l.l.^ ^ f.O O g.; ; z.x.x.c.v.v.b.u.u.n.j.j.m.~ ~ M.1.1.N.. X 8.X.X.p.6.6.B.$ $ 7.~ ~ 8.X ",
"X X X X X X X X X X ~ ~ ~ P P P ^ ^ ^ ^ ^ f.O O g.; ; V.P P C.Z.Z.A.o o j.~ ~ ~ ~ ~ 1.. . . . X X X X 1.~ ~ S.$ $ 7.~ ~ 8.X ",
"X X X . . . . . . . ~ ~ ~ P P P ^ ^ ^ ^ ^ f.O O g.; ; V.P P C.Z.Z.A.o o j.~ ~ ~ ~ ~ 1.. . . . X X X X X.~ ~ S.$ $ 7.~ ~ 8.X ",
"X X X . . . . . . . 1.X.X.o.o.o.t.t.t.t.t.D.x.x.F.G.G.H.J.J.K.L.L.P.j.j.I.U.U.Y.T.T.R.. . . . X X X X 8.X.X.E.6.6.W.1.X.2.X ",
"X X X . . . . . . . . X X ~ ~ ~ P P P P P P P P ) O O g.; ; Q.~ ~ ~ ~ ~ U.- - w.; ; !.. . . . X X X X X X X ~.~ ~ N.. X X X ",
"X X X . . . . . . . . X X ~ ~ ~ P P P P P P P P ) O O g.; ; Q.~ ~ ~ ~ ~ U.- - w.; ; !.. . . . X X X X X X X ~.~ ~ N.. X X X ",
"X X X X X X X . . . . . . 1.1.X.o.o.o.=.=.=.=.=.^././.(.w.w.).~ ~ _.6.6.`.U.U.Y.T.T.R.X X X X X X X X . . . '.1.1.].. X X X ",
"X X X X X X X . . . . . . . . X ~ ~ ~ $ $ $ $ $ S.~ ~ [.- - {.~ ~ 7.$ $ 6.~ ~ ~ ~ ~ 1.X X X X X X X X . . . . . . . . X X X ",
"X X X X X X X . . . . . . . . X ~ ~ ~ $ $ $ $ $ S.~ ~ [.- - {.~ ~ 7.$ $ 6.~ ~ ~ ~ ~ 1.X X X X X X X X . . . . . . . . X X X ",
"X X X X X X X . . . . . . 1.1.X.,.,.,.t t t t t }.~ ~ |. X X.X,.,.XX$ $ 6.~ ~ M.1.1.N.X X X X X X X X . . . . . . . . X X X ",
"X X X X X X X . . . . . . ~ ~ ~ @ @ @ @ @ @ @ @ oX~ ~ OX@ @ @ @ @ # $ $ 6.~ ~ 1.. . . X X X X . . . . . . . . X X X X X X X ",
"X X X X X X X . . . . . . ~ ~ ~ @ @ @ @ @ @ @ @ oX~ ~ OX@ @ @ @ @ # $ $ 6.~ ~ 1.. . . X X X X . . . . . . . . X X X X X X X ",
"X X X X X X X . . . M.M.M.Q.Q.Q.@ @ @ @ @ @ @ @ oX~ ~ +X@X@X@X@X@X#X7.7._.~ ~ 1.. . . X X X X . . . . . . . . X X X X X X X ",
"X X X X X X X . . . ~ ~ ~ ; ; ; @ @ @ @ @ @ @ @ oX~ ~ $X4.4.4.4.4.%X~ ~ ~ ~ ~ 1.. . . X X X X . . . . . . . . X X X X X X X ",
". . . . . . . X X X ~ ~ ~ ; ; ; @ @ @ @ @ @ @ @ oX~ ~ $X4.4.4.4.4.%X~ ~ ~ ~ ~ X.X X X X X X X . . . . . . . . X X X X X X X ",
". . . . M.M.M.~.~.~.~ ~ ~ &X&X&X+ + + @ @ @ @ @ oX~ ~ *X=X=X=X=X=X-X~ ~ ;XoXoX:X~.~.>XX X X X . . . . . . . . X X X X X X X ",
". . . . ~ ~ ~ ~ ~ ~ ~ ~ ~ @ @ @ O O O @ @ @ @ @ oX~ ~ ,X<X<X<X<X<X1X~ ~ ,.@ @ ,.~ ~ X.X X X X . . . . . . . . X X X X X X X ",
". . . . ~ ~ ~ ~ ~ ~ ~ ~ ~ @ @ @ O O O @ @ @ @ @ oX~ ~ ,X<X<X<X<X<X1X~ ~ ,.@ @ ,.~ ~ X.X X X X . . . . . . . . X X X X X X X ",
"X X X . ~ ~ ~ 2X2X2X~ ~ ~ @ @ @ 3X3X3X+ + + + + 4X~ ~ ,X<X<X5X6X6X7X2X2X8XOXOX,.oXoX:X~.~.>XX . . . . . . . . X X X X X X X ",
"X X X . ~ ~ ~ O O O ~ ~ ~ @ @ @ & & & O O O O O 2X~ ~ ,X<X<X9XO O O O O /.~ ~ ,.@ @ ,.~ ~ X.X . . . . . . . . X X X X X X X ",
"X X X . ~ ~ ~ O O O ~ ~ ~ @ @ @ & & & O O O O O 2X~ ~ ,X<X<X9XO O O O O /.~ ~ ,.@ @ ,.~ ~ X.X . . . . . . . . X X X X X X X ",
"X X X . ~ ~ ~ O O O 1X1X1XOXOXOX& & & 3X3X3X3X3X0XoXoXqX,X,XwXf.f.eX) ) rX~ ~ ,.@ @ ,.~ ~ X.X . . . . . . . . X X X X X X X ",
"X X X . ~ ~ ~ O O O <X<X<X~ ~ ~ & & & & & & & & * @ @ oX~ ~ tX^ ^ yXP P o.~ ~ ,.@ @ ,.~ ~ X.X X X X X . . . . X X X X X X X ",
"X X X . ~ ~ ~ O O O <X<X<X~ ~ ~ & & & & & & & & * @ @ oX~ ~ tX^ ^ yXP P o.~ ~ ,.@ @ ,.~ ~ X.X X X X X . . . . X X X X X X X ",
"X X X . N.N.N.uXuXuX<X<X<X1X1X1XiXiXiX8 8 8 8 8 pXOXOXaX~ ~ sXtXtXdXfXfXgX~ ~ hXOXOXjX8.8.2.X X X X X . . . . X X X X X X X ",
"X X X . . . . ~ ~ ~ <X<X<X<X<X<X~ ~ ~ @ @ @ @ @ oX~ ~ ~ ~ ~ ~ ~ ~ ~ ~ ~ ~ ~ ~ ~ ~ ~ 1.X X X X X X X X . . . . X X X X X X X ",
". . . X X X X ~ ~ ~ <X<X<X<X<X<X~ ~ ~ @ @ @ @ @ oX~ ~ ~ ~ ~ ~ ~ ~ ~ ~ ~ ~ ~ ~ ~ ~ ~ 1.. . . . X X X X . . . . X X X X . . . ",
". . . X X X X N.N.N.,X,X,X,X,X,X8.8.8.OXOXOXOXOXaX~ ~ ~ ~ ~ ~ ~ ~ kX1X1X1X1X1XlX~ ~ 1.. . . . X X X X . . . . X X X X . . . ",
". . . X X X X . . . ~ ~ ~ ~ ~ ~ X X X ~ ~ ~ ~ ~ ~ ~ ~ ~ ~ ~ ~ ~ ~ ,X<X<X<X<X<XzX~ ~ 1.. . . . X X X X . . . . X X X X . . . ",
". . . X X X X . . . ~ ~ ~ ~ ~ ~ X X X ~ ~ ~ ~ ~ ~ ~ ~ ~ ~ ~ ~ ~ ~ ,X<X<X<X<X<XzX~ ~ 1.. . . . X X X X . . . . X X X X . . . ",
"      . . . . X X X X X X X X X X X X . . . . X X X X X X X 8.~ ~ ~ ~ ~ ~ ~ ~ 1.. . . X X X X X X X X X X X X . . . .       ",
"      . . . . X X X X X X X X X X X X . . . . X X X X X X X 8.~ ~ ~ ~ ~ ~ ~ ~ 1.. . . X X X X X X X X X X X X . . . .       ",
"      . . . . X X X X X X X X X X X X . . . . X X X X X X X 8.~ ~ ~ ~ ~ ~ ~ ~ 1.. . . X X X X X X X X X X X X . . . .       "
};
