/* XPM */
static char *_3d621accaaf4b25f5b2ee7ac25d59b9Osu7LEyMvmYxhBIY[] = {
/* columns rows colors chars-per-pixel */
"62 62 4 1 ",
"  c #3B8938",
". c #347838",
"X c #21672B",
"o c white",
/* pixels */
"   ....XXXXXXXX....XXXX....XXXXXXXX....XXXX....XXXXXXXX....   ",
"   ....XXXXXXXX....XXXX....XXXXXXXX....XXXX....XXXXXXXX....   ",
"   ....XXXXXXXX....XXXX....XXXXXXXX....XXXX....XXXXXXXX....   ",
"...XXXX....XXXXXXXX........XXXX........XXXX........XXXXXXXX...",
"...XXXX....XXXXXXXX........XXXX........XXXX........XXXXXXXX...",
"...XXXX....XXXXXXXX........XXXX........XXXX........XXXXXXXX...",
"...XXXX....XXXXXXXX........XXXX........XXXX........XXXXXXXX...",
"XXXXXXXXXXX....XXXX........XXXX........XXXX....XXXXXXXX....XXX",
"XXXXXXXXXXX....XXXX........XXXX........XXXX....XXXXXXXX....XXX",
"XXXXXXXXXXX....XXXX........XXXX........XXXX....XXXXXXXX....XXX",
"XXXXXXXXXXX....XXXX........XXXX........XXXX....XXXXXXXX....XXX",
"...XXXXXXXX....XXXXXXXX....XXXX........XXXX....XXXXXXXX....XXX",
"...XXXXXXXX....XXXXXXXX....XXXX........XXXX....XXXXXXXX....XXX",
"...XXXXXXXX....XXXXXXXX....XXXX........XXXX....XXXXXXXX....XXX",
"...XXXXXXXX....XXXXXXXX....XXXX........XXXX....XXXXXXXX....XXX",
".......XXXX........XXXXXXXX........XXXXXXXXXXXX....XXXX....XXX",
".......XXXX........XXXXXXXX........XXXXXXXXXXXX....XXXX....XXX",
".......XXXX........XXXXXXXX........XXXXXXXXXXXX....XXXX....XXX",
".......XXXX........XXXXXXXX........XXXXXXXXXXXX....XXXX....XXX",
"XXX....XXXXXXXX....XXXXXXXX........XXXXXXXX........XXXX....XXX",
"XXX....XXXXXXXX....XXXXXXXX........XXXXXXXX........XXXX....XXX",
"XXX....XXXXXXXX....XXXXXXXX........XXXXXXXX........XXXX....XXX",
"XXX....XXXXXXXX....XXXXXXXX........XXXXXXXX........XXXX....XXX",
"XXX....XXXXXXXX........XXXX........XXXX........XXXX........XXX",
"XXX....XXXXXXXX........XXXX........XXXX........XXXX........XXX",
"XXX....XXXXXXXX........XXXX........XXXX........XXXX........XXX",
"XXX....XXXXXXXX........XXXX........XXXX........XXXX........XXX",
"XXXXXXXXXXXXXXX........XXXX....XXXXXXXX........XXXX....XXXXXXX",
"XXXXXXXXXXXXXXX........XXXX....XXXXXXXX........XXXX....XXXXXXX",
"XXXXXXXXXXXXXXX........XXXX....XXXXXXXX........XXXX....XXXXXXX",
"XXXXXXXXXXXXXXX........XXXX....XXXXXXXX........XXXX....XXXXXXX",
"XXX........XXXXXXXX....XXXXXXXX....XXXX........XXXXXXXX....XXX",
"XXX........XXXXXXXX....XXXXXXXX....XXXX........XXXXXXXX....XXX",
"XXX........XXXXXXXX....XXXXXXXX....XXXX........XXXXXXXX....XXX",
"XXX........XXXXXXXX....XXXXXXXX....XXXX........XXXXXXXX....XXX",
"XXXXXXX........XXXX....XXXX........XXXX....XXXXXXXX........XXX",
"XXXXXXX........XXXX....XXXX........XXXX....XXXXXXXX........XXX",
"XXXXXXX........XXXX....XXXX........XXXX....XXXXXXXX........XXX",
"XXXXXXX........XXXX....XXXX........XXXX....XXXXXXXX........XXX",
"XXXXXXX............XXXX........XXXXXXXX....XXXX........XXXXXXX",
"XXXXXXX............XXXX........XXXXXXXX....XXXX........XXXXXXX",
"XXXXXXX............XXXX........XXXXXXXX....XXXX........XXXXXXX",
"XXXXXXX............XXXX........XXXXXXXX....XXXX........XXXXXXX",
".......XXXX........XXXX........XXXX....XXXXXXXX........XXXXXXX",
".......XXXX........XXXX........XXXX....XXXXXXXX........XXXXXXX",
".......XXXX........XXXX........XXXX....XXXXXXXX........XXXXXXX",
".......XXXX........XXXX........XXXX....XXXXXXXX........XXXXXXX",
"XXX....XXXX....XXXX........XXXXXXXX....XXXXXXXX........XXXXXXX",
"XXX....XXXX....XXXX........XXXXXXXX....XXXXXXXX........XXXXXXX",
"XXX....XXXX....XXXX........XXXXXXXX....XXXXXXXX........XXXXXXX",
"XXX....XXXX....XXXX........XXXXXXXX....XXXXXXXX........XXXXXXX",
"XXX........XXXXXXXX........XXXXXXXX........XXXXXXXX....XXXXXXX",
"XXX........XXXXXXXX........XXXXXXXX........XXXXXXXX....XXXXXXX",
"XXX........XXXXXXXX........XXXXXXXX........XXXXXXXX....XXXXXXX",
"XXX........XXXXXXXX........XXXXXXXX........XXXXXXXX....XXXXXXX",
"...XXXX....XXXXXXXXXXXX....XXXXXXXXXXXX........XXXX....XXXX...",
"...XXXX....XXXXXXXXXXXX....XXXXXXXXXXXX........XXXX....XXXX...",
"...XXXX....XXXXXXXXXXXX....XXXXXXXXXXXX........XXXX....XXXX...",
"...XXXX....XXXXXXXXXXXX....XXXXXXXXXXXX........XXXX....XXXX...",
"   ....XXXXXXXXXXXX....XXXXXXXXXXXXXXXX....XXXXXXXXXXXX....   ",
"   ....XXXXXXXXXXXX....XXXXXXXXXXXXXXXX....XXXXXXXXXXXX....   ",
"   ....XXXXXXXXXXXX....XXXXXXXXXXXXXXXX....XXXXXXXXXXXX....   "
};
