/* XPM */
static char *adc1f94762bb44eb842f07a1c4007c59mTXJsuqk5ftvUP4Z[] = {
/* columns rows colors chars-per-pixel */
"62 62 156 2 ",
"   c #489848",
".  c #428242",
"X  c #282828",
"o  c #3B6B3B",
"O  c #355535",
"+  c #448B44",
"@  c #37563B",
"#  c #415D53",
"$  c #456456",
"%  c #587E66",
"&  c #537862",
"*  c #4A6A5A",
"=  c #3A5841",
"-  c #407D40",
";  c #396239",
":  c #3C5A47",
">  c #3C703C",
",  c #303A36",
"<  c #51806F",
"1  c #598B75",
"2  c #78B88F",
"3  c #70AD89",
"4  c #61967C",
"5  c #384B44",
"6  c #2E3E2E",
"7  c #446458",
"8  c #548472",
"9  c #62997D",
"0  c #68A282",
"q  c #5F947B",
"w  c #5A8D77",
"e  c #659D80",
"r  c #578974",
"t  c #476B5E",
"y  c #3E5B4D",
"u  c #568773",
"i  c #679F81",
"p  c #5D9279",
"a  c #4A7264",
"s  c #496E61",
"d  c #72AF8A",
"f  c #6FAB87",
"g  c #4E7969",
"h  c #6CA685",
"j  c #85C499",
"k  c #9AD5A7",
"l  c #8CC99D",
"z  c #517866",
"x  c #609479",
"c  c #93CFA2",
"v  c #75B48C",
"b  c #58866F",
"n  c #8ECB9F",
"m  c #B0E8B7",
"M  c #A5DEAF",
"N  c #689C81",
"B  c #A9E2B2",
"V  c #ACE4B4",
"C  c #86BD98",
"Z  c #AEE6B5",
"A  c #96CEA3",
"S  c #64957D",
"D  c #8ABE9A",
"F  c #9DD3A9",
"G  c #7DB992",
"H  c #96D0A4",
"J  c #A3DCAE",
"K  c #6AA483",
"L  c #83C297",
"P  c #7ABA91",
"I  c #95D1A4",
"U  c #9ED9AA",
"Y  c #7FBE94",
"T  c #73B18B",
"R  c #A7E0B1",
"E  c #81C095",
"W  c #76B68E",
"Q  c #649B7E",
"!  c #6AA183",
"~  c #72AC8A",
"^  c #4D6C5A",
"/  c #2A2C2B",
"(  c #2F3633",
")  c #7BB790",
"_  c #486251",
"`  c #285728",
"'  c #283B28",
"]  c #357135",
"[  c #2E642E",
"{  c #283128",
"}  c #2F3E33",
"|  c #7CB991",
" . c #74B18B",
".. c #3C564A",
"X. c #2B462B",
"o. c #397939",
"O. c #284E28",
"+. c #2D5A2D",
"@. c #517B69",
"#. c #8DC39D",
"$. c #6A9E83",
"%. c #538270",
"&. c #68A081",
"*. c #428B42",
"=. c #438E43",
"-. c #3C524A",
";. c #426255",
":. c #428942",
">. c #284628",
",. c #9AD4A7",
"<. c #283028",
"1. c #356B35",
"2. c #479447",
"3. c #3E733F",
"4. c #323C37",
"5. c #38453D",
"6. c #36433B",
"7. c #2D3331",
"8. c #3B653D",
"9. c #3D564D",
"0. c #323D39",
"q. c #333E39",
"w. c #7BA986",
"e. c #5E7561",
"r. c #49564A",
"t. c #68866E",
"y. c #8AC79C",
"u. c #7A9B7E",
"i. c #70AA88",
"p. c #9CD7A9",
"a. c #8FBA95",
"s. c #374842",
"d. c #87C399",
"f. c #77B08D",
"g. c #8DBE97",
"h. c #3B4B41",
"j. c #405A4F",
"k. c #A2DAAC",
"l. c #7CBC92",
"z. c #A3DCAD",
"x. c #659576",
"c. c #2B2F2E",
"v. c #73AC8A",
"b. c #7CB691",
"n. c #85C198",
"m. c #2A4A2B",
"M. c #496B5C",
"N. c #2D4231",
"B. c #2B462E",
"V. c #3C7F3C",
"C. c #326632",
"Z. c #284428",
"A. c #377237",
"S. c #479547",
"D. c #449044",
"F. c #3B7E3B",
/* pixels */
"              . X X X X X X X X X X X X X X X o                               X X X X X X X X X X X X X X X O               ",
"          + O @ # $ % & # # # # # # # * % * # = O -                       ; O # # % % # # # # # # # $ % & # : O >           ",
"          . X , < 1 2 3 < < < < < < < 4 2 4 < 5 X o                       6 X < < 2 2 < < < < < < < 1 2 3 < # X O           ",
"        O @ # 7 < 8 4 9 0 q < < < w 0 e 4 r < t # = O -               ; O y # < < 4 4 0 0 < < < u 0 i 4 p < a # : O >       ",
"        X , < < < < < 1 2 0 < < < 4 2 0 < < < < < 5 X o               6 X s < < < < < 2 2 < < < 1 2 3 < < < < < # X O       ",
"    O O # 7 < < < < < 1 2 d 0 0 0 f 2 0 < < < < < t # = O +       ; O y # g < < < < < 2 2 0 0 0 h 2 3 < < < < < a # : O >   ",
"    X X < < < < < < < 1 2 2 2 2 2 2 2 0 < < < < < < < 5 X .       6 X s < < < < < < < 2 2 2 2 2 2 2 3 < < < < < < < # X O   ",
"O O # # 0 0 0 0 0 0 0 h 2 j k k k l 2 d 0 0 0 0 0 0 0 z # @ O O O y # x 0 0 0 0 0 0 0 2 2 k k k c 2 v 0 0 0 0 0 0 0 b # : O ",
"X X < < 2 2 2 2 2 2 2 2 2 n m m m k 2 2 2 2 2 2 2 2 2 4 < , X X X s < 3 2 2 2 2 2 2 2 2 2 m m m M 2 2 2 2 2 2 2 2 2 0 < # X ",
"X X < < 1 1 1 1 1 1 1 N M B m m m V M C 1 1 1 1 1 1 1 8 < , X X X s < r 1 1 1 1 1 1 1 M M m m m Z M A 1 1 1 1 1 1 1 u < # X ",
"X X < < < < < < < < < S m m m m m m m D < < < < < < < < < , X X X s < < < < < < < < < m m m m m m m F < < < < < < < < < # X ",
"X X < < < < < < < r 3 G m m m m m m m H 3 p < < < < < < < , X X X s < < < < < < < 3 3 m m m m m m m J 3 K < < < < < < < # X ",
"X X < < < < < < < 1 2 L m m m m m m m k 2 4 < < < < < < < , X X X s < < < < < < < 2 2 m m m m m m m M 2 3 < < < < < < < # X ",
"X X < < < < < r 3 d 2 P L I m m m U L Y 2 T 3 p < < < < < , X X X s < < < < < 3 3 2 2 L L m m m R L E 2 W 3 Q < < < < < # X ",
"X X < < < < < 1 2 2 2 2 2 n m m m k 2 2 2 2 2 4 < < < < < , X X X s < < < < < 2 2 2 2 2 2 m m m M 2 2 2 2 2 0 < < < < < # X ",
"X X < < < r 3 d 2 d 1 1 1 ! L L L ~ 1 1 1 h 2 ^ , , , , , / X X X ( , , , , , 2 2 1 1 1 1 L L L ) 1 1 1 q 2 v 3 Q < < < # X ",
"X X < < < 1 2 2 2 3 < < < 4 2 2 2 0 < < < 0 2 _ X X X X X X X X X X X X X X X 2 2 < < < < 2 2 2 3 < < < 1 2 2 2 0 < < < # X ",
"X X < < 2 2 2 3 < < < 1 2 0 < < < 4 2 0 < 5 X # < 0 2 4 < < < < < < < 3 2 1 < X X < < 2 2 < < < 1 2 3 < < < 4 2 2 2 0 < # X ",
"X X < < 2 2 2 3 < < < 1 2 0 < < < 4 2 0 < 5 X # < 0 2 4 < < < < < < < 3 2 1 < X X < < 2 2 < < < 1 2 3 < < < 4 2 2 2 0 < # X ",
"X X < < 2 3 < < < < < 1 2 0 < < < 4 2 % X # < < < < < 0 2 1 < < < 3 2 1 < < < < < X X 2 2 < < < 1 2 3 < < < < < 4 2 0 < # X ",
"X X < < 2 3 < < < < < 1 2 0 < < < 4 2 % X # < < < < < 0 2 1 < < < 3 2 1 < < < < < X X 2 2 < < < 1 2 3 < < < < < 4 2 0 < # X ",
"` ` X X < < < < < 1 2 3 < < < < < # X 5 < < < < < < < 0 2 2 2 2 2 2 2 1 < < < < < < < X X < < < < < 1 2 3 < < < < < # X ' ` ",
"` ` X X < < < < < 1 2 3 < < < < < # X 5 < < < < < < < 0 2 2 2 2 2 2 2 1 < < < < < < < X X < < < < < 1 2 3 < < < < < # X ' ` ",
"    ` ` X , < < < 1 2 3 < < < # X 5 < 4 2 2 2 2 2 2 2 2 2 M m m m L 2 2 2 2 2 2 2 2 2 < < X , < < < 1 2 3 < < < # X ' ` ]   ",
"    [ [ { } s a < 1 2 3 < < < # X 5 < p 3 3 3 3 3 3 3 | L R m m m l L  .3 3 3 3 3 3 3 < < X , < < < 1 2 3 < g s ..{ X.[ o.  ",
"        ` O.X , < 1 2 3 < < < # X 5 < < < < < < < < < D m m m m m m m S < < < < < < < < < X , < < < 1 2 3 < # X ' ` ]       ",
"        [ +.{ } s @.3 K < < < # X 5 < < < < < < < u 1 #.m m m m m m m $.1 %.< < < < < < < X , < < < r 3 &.s ..{ X.[ o.      ",
"          *.` O.X , < < < < < # X 5 < < < < < < < 0 2 k m m m m m m m L 2 1 < < < < < < < X , < < < < < s X ' ` ]           ",
"          =.[ +.{ } s s s s s -.X 5 < < < < < u 1 h 2 c M Z m m m R M E 2 q 1 < < < < < < X ( s s s s s ;.{ X.[ o.          ",
"              *.` O.X X X X X X X 5 < < < < < 0 2 2 2 2 2 M m m m L 2 2 2 2 2 < < < < < < X X X X X X X { ` ]               ",
"              :.O.>.X X X X X X X 5 < < < u 1 h 2 T 3 3 3 ,.M M M ) 3 3 3 W 2 1 1 < < < < X X X X X X X <.O.1.              ",
"              . X X X X X X X X X 5 < < < 0 2 2 2 4 < < < 3 2 2 2 1 < < < 3 2 2 2 < < < < X X X X X X X X X O               ",
"          2.. 3., 4.5.6., , , 7.X 5 < 8 1 h 2 T 3 p < u 1 h 3 3 3 p 1 %.< K 3 2 2 1 1 < < X / , , , 4.5.6., @ . +           ",
"          . X , < 1 2 3 < < < # X 5 < 4 2 2 2 4 < < < 0 2 1 < < < 3 2 1 < < < 2 2 2 2 < < X , < < < 1 2 3 < # X O           ",
"        o 8.5 9.< u 0 i 4 w < # X 5 < 4 2 f 0 w < < < 0 2 1 < < < 3 2 1 < < < 0 0 2 2 < < X , < 8 4 9 0 Q < t 5 = o -       ",
"        X , < < < < < 1 2 0 < # X 5 < 4 2 4 < < < < < 0 2 1 < < < 3 2 1 < < < < < 2 2 < < X , < 1 2 3 < < < < < # X O       ",
"    o o 5 9.< < < < < 1 2 f 4 * X 0.# z 0 w < < < w 4 e 0 u < < < Q 0 9 4 8 < < < 0 0 # # X q.4 e 2 3 < < < < < t 5 = o -   ",
"    X X < < < < < < < 1 2 2 2 % X X X 5 < < < < < 0 2 4 < < < < < < < 3 2 1 < < < < < X X X 5.2 2 2 3 < < < < < < < # X O   ",
"o o 5 5 4 4 4 4 4 4 4 e 2 E n w.e.r.X 0.# a < < < 0 2 4 < < < < < < < 3 2 1 < < < # # X X e.t.n y.2 T 4 4 4 4 4 4 4 z 5 = o ",
"X X < < 2 2 2 2 2 2 2 2 2 n m m m u.X X X # < < < 0 2 4 < < < < < < < 3 2 1 < < < X X X X m m m M 2 2 2 2 2 2 2 2 2 0 < # X ",
"X X < < 0 0 0 0 0 0 0 i.n p.m m m a.e.r.X s.# a < 0 2 4 < < < < < < < 3 2 1 < # # X X e.e.m m m B n d.0 0 0 0 0 0 0 q < # X ",
"X X < < < < < < < < < S m m m m m m m u.X X X # < 0 2 4 < < < < < < < 3 2 1 < X X X X m m m m m m m F < < < < < < < < < # X ",
"X X < < < < < < < u 0 f.m m m m m m m g.% h.X 0.5 z 4 r < < < < < < < p 4 j.5 X X % % m m m m m m m k.0 Q < < < < < < < # X ",
"X X < < < < < < < 1 2 L m m m m m m m k 2 _ X X X # < < < < < < < < < < < , X X X 2 2 m m m m m m m M 2 3 < < < < < < < # X ",
"X X < < < < < u 0 h 2 l.n p.m m m z.n j 2 x.% h.X 0.5 5 5 5 5 5 5 5 5 5 5 c.X % % 2 2 n n m m m B n y.2 v 0 q < < < < < # X ",
"X X < < < < < 1 2 2 2 2 2 n m m m k 2 2 2 2 2 _ X X X X X X X X X X X X X X X 2 2 2 2 2 2 m m m M 2 2 2 2 2 0 < < < < < # X ",
"X X < < < u 0 h 2 T 4 4 4 v.n n n b.4 4 4 f 2 x.% * # # # 7.X X X -.# # # & % 2 2 4 4 4 4 n n n n.4 4 4 e 2 d 0 q < < < # X ",
"X X < < < 1 2 2 2 3 < < < 4 2 2 2 0 < < < 0 2 2 2 4 < < < , X X X s < < < 3 2 2 2 < < < < 2 2 2 3 < < < 1 2 2 2 0 < < < # X ",
"X X < < 0 h 2 T 4 p < u 0 e 4 4 4 Q 0 q < w 4 f 2 f 0 w < , X X X s < Q 0 v 2 4 4 < < 0 0 4 4 4 9 0 Q < 8 4 K 2 d 0 q < # X ",
"X X < < 2 2 2 3 < < < 1 2 0 < < < 4 2 0 < < < 0 2 2 2 4 < , X X X s < 3 2 2 2 < < < < 2 2 < < < 1 2 3 < < < 4 2 2 2 0 < # X ",
"X X < < 2 d 1 r < < < 1 2 0 < < < 4 2 0 < < < u 1 h 2 4 < , X X X s < 3 2 q 1 < < < < 2 2 < < < 1 2 3 < < < 8 1 e 2 0 < # X ",
"X X < < 2 3 < < < < < 1 2 0 < < < 4 2 0 < < < < < 0 2 4 < , X X X s < 3 2 1 < < < < < 2 2 < < < 1 2 3 < < < < < 4 2 0 < # X ",
"O.O., , 1 r < < < r 3 h 1 u < < < 8 1 9 3 p < < < u 1 j., m.O.O.O.} , @.1 %.< < < 3 3 1 1 < < < %.1 p 3 K < < < 8 1 M., N.O.",
"` ` X X < < < < < 1 2 3 < < < < < < < 4 2 4 < < < < < 5 X O.` ` ` { X s < < < < < 2 2 < < < < < < < 1 2 3 < < < < < # X ' ` ",
"*.*.O.O., s.< < < 1 2 3 < < < < < < < 4 2 4 < < < 9., B.O.V.*.*.*.+.O.} , a < < < 2 2 < < < < < < < 1 2 3 < < < 7 , N.O.C.*.",
"    ` ` X , < < < 1 2 3 < < < < < < < 4 2 4 < < < 5 X Z.` *.      [ ` { X s < < < 2 2 < < < < < < < 1 2 3 < < < # X ' ` ]   ",
"    *.*.O.m., s.< 1 2 3 < < < < < < < 4 2 4 < 9., B.O.A.*.S.      =.*.+.O.} , < < 2 2 < < < < < < < 1 2 3 < 7 , N.O.C.*.D.  ",
"        ` O.X , < 1 2 3 < < < < < < < 4 2 4 < 5 X Z.` F.              [ ` { X < < 2 2 < < < < < < < 1 2 3 < # X ' ` ]       ",
"          *.` O.X , < < < < < < < < < < < 5 X Z.` F.                      [ ` X X < < < < < < < < < < < s X ' ` ]           ",
"          *.` O.X , < < < < < < < < < < < 5 X Z.` F.                      [ ` X X < < < < < < < < < < < s X ' ` ]           ",
"              *.` O.X X X X X X X X X X X Z.` F.                              ` ` X X X X X X X X X X X { ` ]               ",
"              *.` O.X X X X X X X X X X X Z.` F.                              ` ` X X X X X X X X X X X { ` ]               "
};
